<svg width="24" height="23" viewBox="0 0 24 23" fill="none" xmlns="http://www.w3.org/2000/svg">
<mask id="path-1-inside-1_1444_4875" fill="white">
<path d="M15 22.5H12.75C12.3522 22.5 11.9706 22.342 11.6893 22.0607C11.408 21.7794 11.25 21.3978 11.25 21V17.25H12.75V21H15V17.25H16.5V14.25C16.5 14.0511 16.421 13.8603 16.2803 13.7197C16.1397 13.579 15.9489 13.5 15.75 13.5H9.21L7.71 9H3C2.80109 9 2.61032 9.07902 2.46967 9.21967C2.32902 9.36032 2.25 9.55109 2.25 9.75V14.25H3.75V21H6.75V15.75H8.25V21C8.25 21.3978 8.09196 21.7794 7.81066 22.0607C7.52936 22.342 7.14782 22.5 6.75 22.5H3.75C3.35218 22.5 2.97064 22.342 2.68934 22.0607C2.40804 21.7794 2.25 21.3978 2.25 21V15.75C1.85218 15.75 1.47064 15.592 1.18934 15.3107C0.908035 15.0294 0.75 14.6478 0.75 14.25V9.75C0.750596 9.15345 0.98784 8.5815 1.40967 8.15967C1.8315 7.73784 2.40345 7.5006 3 7.5H7.71C8.02473 7.50003 8.33147 7.59905 8.58681 7.78305C8.84215 7.96705 9.03314 8.2267 9.13275 8.52525L10.29 12H15.75C16.3466 12.0006 16.9185 12.2378 17.3403 12.6597C17.7622 13.0815 17.9994 13.6534 18 14.25V17.25C18 17.6478 17.842 18.0294 17.5607 18.3107C17.2794 18.592 16.8978 18.75 16.5 18.75V21C16.5 21.3978 16.342 21.7794 16.0607 22.0607C15.7794 22.342 15.3978 22.5 15 22.5ZM21 22.5H19.5V14.25H21.75V9.75C21.75 9.55109 21.671 9.36032 21.5303 9.21967C21.3897 9.07902 21.1989 9 21 9H18V7.5H21C21.5966 7.5006 22.1685 7.73784 22.5903 8.15967C23.0122 8.5815 23.2494 9.15345 23.25 9.75V14.25C23.25 14.6478 23.092 15.0294 22.8107 15.3107C22.5294 15.592 22.1478 15.75 21.75 15.75H21V22.5ZM5.25 6.75C4.65666 6.75 4.07664 6.57405 3.58329 6.24441C3.08994 5.91477 2.70542 5.44623 2.47836 4.89805C2.2513 4.34987 2.19189 3.74667 2.30764 3.16473C2.4234 2.58279 2.70912 2.04824 3.12868 1.62868C3.54824 1.20912 4.08279 0.923401 4.66473 0.807646C5.24667 0.69189 5.84987 0.7513 6.39805 0.978363C6.94623 1.20543 7.41476 1.58994 7.74441 2.08329C8.07405 2.57664 8.25 3.15666 8.25 3.75C8.24901 4.54535 7.93262 5.30783 7.37022 5.87023C6.80783 6.43262 6.04534 6.74901 5.25 6.75ZM5.25 2.25C4.95333 2.25 4.66332 2.33797 4.41664 2.5028C4.16997 2.66762 3.97771 2.90189 3.86418 3.17598C3.75065 3.45007 3.72094 3.75167 3.77882 4.04264C3.8367 4.33361 3.97956 4.60088 4.18934 4.81066C4.39912 5.02044 4.66639 5.1633 4.95736 5.22118C5.24834 5.27906 5.54994 5.24935 5.82403 5.13582C6.09811 5.02229 6.33238 4.83003 6.4972 4.58336C6.66203 4.33668 6.75 4.04667 6.75 3.75C6.75 3.35218 6.59196 2.97065 6.31066 2.68934C6.02936 2.40804 5.64782 2.25 5.25 2.25ZM18.75 6.75C18.1567 6.75 17.5766 6.57405 17.0833 6.24441C16.5899 5.91477 16.2054 5.44623 15.9784 4.89805C15.7513 4.34987 15.6919 3.74667 15.8076 3.16473C15.9234 2.58279 16.2091 2.04824 16.6287 1.62868C17.0482 1.20912 17.5828 0.923401 18.1647 0.807646C18.7467 0.69189 19.3499 0.7513 19.8981 0.978363C20.4462 1.20543 20.9148 1.58994 21.2444 2.08329C21.5741 2.57664 21.75 3.15666 21.75 3.75C21.749 4.54535 21.4326 5.30783 20.8702 5.87023C20.3078 6.43262 19.5453 6.74901 18.75 6.75ZM18.75 2.25C18.4533 2.25 18.1633 2.33797 17.9166 2.5028C17.67 2.66762 17.4777 2.90189 17.3642 3.17598C17.2506 3.45007 17.2209 3.75167 17.2788 4.04264C17.3367 4.33361 17.4796 4.60088 17.6893 4.81066C17.8991 5.02044 18.1664 5.1633 18.4574 5.22118C18.7483 5.27906 19.0499 5.24935 19.324 5.13582C19.5981 5.02229 19.8324 4.83003 19.9972 4.58336C20.162 4.33668 20.25 4.04667 20.25 3.75C20.25 3.35218 20.092 2.97065 19.8107 2.68934C19.5294 2.40804 19.1478 2.25 18.75 2.25Z"/>
</mask>
<path d="M15 22.5H12.75C12.3522 22.5 11.9706 22.342 11.6893 22.0607C11.408 21.7794 11.25 21.3978 11.25 21V17.25H12.75V21H15V17.25H16.5V14.25C16.5 14.0511 16.421 13.8603 16.2803 13.7197C16.1397 13.579 15.9489 13.5 15.75 13.5H9.21L7.71 9H3C2.80109 9 2.61032 9.07902 2.46967 9.21967C2.32902 9.36032 2.25 9.55109 2.25 9.75V14.25H3.75V21H6.75V15.75H8.25V21C8.25 21.3978 8.09196 21.7794 7.81066 22.0607C7.52936 22.342 7.14782 22.5 6.75 22.5H3.75C3.35218 22.5 2.97064 22.342 2.68934 22.0607C2.40804 21.7794 2.25 21.3978 2.25 21V15.75C1.85218 15.75 1.47064 15.592 1.18934 15.3107C0.908035 15.0294 0.75 14.6478 0.75 14.25V9.75C0.750596 9.15345 0.98784 8.5815 1.40967 8.15967C1.8315 7.73784 2.40345 7.5006 3 7.5H7.71C8.02473 7.50003 8.33147 7.59905 8.58681 7.78305C8.84215 7.96705 9.03314 8.2267 9.13275 8.52525L10.29 12H15.75C16.3466 12.0006 16.9185 12.2378 17.3403 12.6597C17.7622 13.0815 17.9994 13.6534 18 14.25V17.25C18 17.6478 17.842 18.0294 17.5607 18.3107C17.2794 18.592 16.8978 18.75 16.5 18.75V21C16.5 21.3978 16.342 21.7794 16.0607 22.0607C15.7794 22.342 15.3978 22.5 15 22.5ZM21 22.5H19.5V14.25H21.75V9.75C21.75 9.55109 21.671 9.36032 21.5303 9.21967C21.3897 9.07902 21.1989 9 21 9H18V7.5H21C21.5966 7.5006 22.1685 7.73784 22.5903 8.15967C23.0122 8.5815 23.2494 9.15345 23.25 9.75V14.25C23.25 14.6478 23.092 15.0294 22.8107 15.3107C22.5294 15.592 22.1478 15.75 21.75 15.75H21V22.5ZM5.25 6.75C4.65666 6.75 4.07664 6.57405 3.58329 6.24441C3.08994 5.91477 2.70542 5.44623 2.47836 4.89805C2.2513 4.34987 2.19189 3.74667 2.30764 3.16473C2.4234 2.58279 2.70912 2.04824 3.12868 1.62868C3.54824 1.20912 4.08279 0.923401 4.66473 0.807646C5.24667 0.69189 5.84987 0.7513 6.39805 0.978363C6.94623 1.20543 7.41476 1.58994 7.74441 2.08329C8.07405 2.57664 8.25 3.15666 8.25 3.75C8.24901 4.54535 7.93262 5.30783 7.37022 5.87023C6.80783 6.43262 6.04534 6.74901 5.25 6.75ZM5.25 2.25C4.95333 2.25 4.66332 2.33797 4.41664 2.5028C4.16997 2.66762 3.97771 2.90189 3.86418 3.17598C3.75065 3.45007 3.72094 3.75167 3.77882 4.04264C3.8367 4.33361 3.97956 4.60088 4.18934 4.81066C4.39912 5.02044 4.66639 5.1633 4.95736 5.22118C5.24834 5.27906 5.54994 5.24935 5.82403 5.13582C6.09811 5.02229 6.33238 4.83003 6.4972 4.58336C6.66203 4.33668 6.75 4.04667 6.75 3.75C6.75 3.35218 6.59196 2.97065 6.31066 2.68934C6.02936 2.40804 5.64782 2.25 5.25 2.25ZM18.75 6.75C18.1567 6.75 17.5766 6.57405 17.0833 6.24441C16.5899 5.91477 16.2054 5.44623 15.9784 4.89805C15.7513 4.34987 15.6919 3.74667 15.8076 3.16473C15.9234 2.58279 16.2091 2.04824 16.6287 1.62868C17.0482 1.20912 17.5828 0.923401 18.1647 0.807646C18.7467 0.69189 19.3499 0.7513 19.8981 0.978363C20.4462 1.20543 20.9148 1.58994 21.2444 2.08329C21.5741 2.57664 21.75 3.15666 21.75 3.75C21.749 4.54535 21.4326 5.30783 20.8702 5.87023C20.3078 6.43262 19.5453 6.74901 18.75 6.75ZM18.75 2.25C18.4533 2.25 18.1633 2.33797 17.9166 2.5028C17.67 2.66762 17.4777 2.90189 17.3642 3.17598C17.2506 3.45007 17.2209 3.75167 17.2788 4.04264C17.3367 4.33361 17.4796 4.60088 17.6893 4.81066C17.8991 5.02044 18.1664 5.1633 18.4574 5.22118C18.7483 5.27906 19.0499 5.24935 19.324 5.13582C19.5981 5.02229 19.8324 4.83003 19.9972 4.58336C20.162 4.33668 20.25 4.04667 20.25 3.75C20.25 3.35218 20.092 2.97065 19.8107 2.68934C19.5294 2.40804 19.1478 2.25 18.75 2.25Z" fill="#BB5042" stroke="#BB5042" stroke-width="4" mask="url(#path-1-inside-1_1444_4875)"/>
</svg>
