<svg width="18" height="14" viewBox="0 0 18 14" fill="none" xmlns="http://www.w3.org/2000/svg">
<path d="M11.154 7.462H15.231V6.462H11.154V7.462ZM11.154 4.692H15.231V3.692H11.154V4.692ZM2.769 10.308H9.385V10.142C9.385 9.55867 9.09167 9.107 8.505 8.787C7.91833 8.467 7.109 8.307 6.077 8.307C5.045 8.307 4.23533 8.467 3.648 8.787C3.06067 9.107 2.76767 9.55867 2.769 10.142V10.308ZM6.077 6.692C6.499 6.692 6.85433 6.54767 7.143 6.259C7.43233 5.96967 7.577 5.614 7.577 5.192C7.577 4.77 7.43233 4.41467 7.143 4.126C6.85367 3.83733 6.49833 3.69267 6.077 3.692C5.65567 3.69133 5.30033 3.836 5.011 4.126C4.72167 4.416 4.577 4.77133 4.577 5.192C4.577 5.61267 4.72167 5.96833 5.011 6.259C5.30033 6.54967 5.65567 6.694 6.077 6.692ZM1.616 14C1.15533 14 0.771 13.846 0.463 13.538C0.155 13.23 0.000666667 12.8453 0 12.384V1.616C0 1.15533 0.154333 0.771 0.463 0.463C0.771667 0.155 1.15567 0.000666667 1.615 0H16.385C16.845 0 17.229 0.154333 17.537 0.463C17.845 0.771667 17.9993 1.156 18 1.616V12.385C18 12.845 17.8457 13.2293 17.537 13.538C17.2283 13.8467 16.8443 14.0007 16.385 14H1.616ZM1.616 13H16.385C16.5383 13 16.6793 12.936 16.808 12.808C16.9367 12.68 17.0007 12.5387 17 12.384V1.616C17 1.462 16.936 1.32067 16.808 1.192C16.68 1.06333 16.539 0.999333 16.385 1H1.615C1.46167 1 1.32067 1.064 1.192 1.192C1.06333 1.32 0.999333 1.46133 1 1.616V12.385C1 12.5383 1.064 12.6793 1.192 12.808C1.32 12.9367 1.461 13.0007 1.615 13" fill="#BB5042"/>
</svg>
