<svg width="25" height="24" viewBox="0 0 25 24" fill="none" xmlns="http://www.w3.org/2000/svg">
<mask id="path-1-inside-1_1281_21222" fill="white">
<path d="M12.5001 16.689C12.5948 16.689 12.6868 16.6743 12.7761 16.645C12.8654 16.6163 12.9471 16.5666 13.0211 16.496C13.4264 16.128 13.8098 15.7683 14.1711 15.417C14.5331 15.0656 14.8514 14.7226 15.1261 14.388C15.4008 14.0533 15.6208 13.725 15.7861 13.403C15.9514 13.081 16.0344 12.771 16.0351 12.473C16.0351 11.9196 15.8458 11.4586 15.4671 11.09C15.0891 10.7226 14.6334 10.539 14.1001 10.539C13.7694 10.539 13.4698 10.607 13.2011 10.743C12.9324 10.8796 12.6988 11.0513 12.5001 11.258C12.3268 11.0513 12.1008 10.8796 11.8221 10.743C11.5434 10.607 11.2488 10.539 10.9381 10.539C10.4048 10.539 9.94909 10.723 9.57109 11.091C9.19309 11.4583 9.00409 11.919 9.00409 12.473C9.00409 12.7703 9.08342 13.0803 9.24209 13.403C9.40142 13.7256 9.61842 14.0543 9.89309 14.389C10.1678 14.7236 10.4861 15.0663 10.8481 15.417C11.2101 15.7676 11.5868 16.1276 11.9781 16.497C12.0528 16.567 12.1348 16.6163 12.2241 16.645C12.3134 16.6743 12.4054 16.689 12.5001 16.689ZM7.11609 20C6.66809 20 6.28675 19.8426 5.97209 19.528C5.65742 19.2133 5.50009 18.8323 5.50009 18.385V10.855L3.96209 12.054C3.84342 12.144 3.72142 12.1786 3.59609 12.158C3.47075 12.1373 3.36309 12.068 3.27309 11.95C3.18309 11.832 3.14642 11.7103 3.16309 11.585C3.17842 11.459 3.24342 11.351 3.35809 11.261L11.5061 5.00198C11.6508 4.89398 11.8081 4.81298 11.9781 4.75898C12.1481 4.70498 12.3221 4.67865 12.5001 4.67998C12.6781 4.68131 12.8491 4.70798 13.0131 4.75998C13.1771 4.81198 13.3311 4.89298 13.4751 5.00298L21.6481 11.263C21.7621 11.3523 21.8264 11.4596 21.8411 11.585C21.8544 11.711 21.8164 11.833 21.7271 11.951C21.6371 12.065 21.5294 12.1323 21.4041 12.153C21.2788 12.173 21.1588 12.1383 21.0441 12.049L19.5001 10.856V18.385C19.5001 18.8316 19.3428 19.2126 19.0281 19.528C18.7134 19.8426 18.3324 20 17.8851 20H7.11609ZM7.11609 19H17.8851C18.0644 19 18.2118 18.9423 18.3271 18.827C18.4424 18.7116 18.5001 18.5643 18.5001 18.385V10.1L12.8661 5.81398C12.7634 5.72398 12.6414 5.67898 12.5001 5.67898C12.3588 5.67898 12.2371 5.72365 12.1351 5.81298L6.50009 10.1V18.385C6.50009 18.5643 6.55775 18.7116 6.67309 18.827C6.78842 18.9423 6.93609 19 7.11609 19ZM7.11609 19H6.50009H18.5001H7.11609Z"/>
</mask>
<path d="M12.5001 16.689C12.5948 16.689 12.6868 16.6743 12.7761 16.645C12.8654 16.6163 12.9471 16.5666 13.0211 16.496C13.4264 16.128 13.8098 15.7683 14.1711 15.417C14.5331 15.0656 14.8514 14.7226 15.1261 14.388C15.4008 14.0533 15.6208 13.725 15.7861 13.403C15.9514 13.081 16.0344 12.771 16.0351 12.473C16.0351 11.9196 15.8458 11.4586 15.4671 11.09C15.0891 10.7226 14.6334 10.539 14.1001 10.539C13.7694 10.539 13.4698 10.607 13.2011 10.743C12.9324 10.8796 12.6988 11.0513 12.5001 11.258C12.3268 11.0513 12.1008 10.8796 11.8221 10.743C11.5434 10.607 11.2488 10.539 10.9381 10.539C10.4048 10.539 9.94909 10.723 9.57109 11.091C9.19309 11.4583 9.00409 11.919 9.00409 12.473C9.00409 12.7703 9.08342 13.0803 9.24209 13.403C9.40142 13.7256 9.61842 14.0543 9.89309 14.389C10.1678 14.7236 10.4861 15.0663 10.8481 15.417C11.2101 15.7676 11.5868 16.1276 11.9781 16.497C12.0528 16.567 12.1348 16.6163 12.2241 16.645C12.3134 16.6743 12.4054 16.689 12.5001 16.689ZM7.11609 20C6.66809 20 6.28675 19.8426 5.97209 19.528C5.65742 19.2133 5.50009 18.8323 5.50009 18.385V10.855L3.96209 12.054C3.84342 12.144 3.72142 12.1786 3.59609 12.158C3.47075 12.1373 3.36309 12.068 3.27309 11.95C3.18309 11.832 3.14642 11.7103 3.16309 11.585C3.17842 11.459 3.24342 11.351 3.35809 11.261L11.5061 5.00198C11.6508 4.89398 11.8081 4.81298 11.9781 4.75898C12.1481 4.70498 12.3221 4.67865 12.5001 4.67998C12.6781 4.68131 12.8491 4.70798 13.0131 4.75998C13.1771 4.81198 13.3311 4.89298 13.4751 5.00298L21.6481 11.263C21.7621 11.3523 21.8264 11.4596 21.8411 11.585C21.8544 11.711 21.8164 11.833 21.7271 11.951C21.6371 12.065 21.5294 12.1323 21.4041 12.153C21.2788 12.173 21.1588 12.1383 21.0441 12.049L19.5001 10.856V18.385C19.5001 18.8316 19.3428 19.2126 19.0281 19.528C18.7134 19.8426 18.3324 20 17.8851 20H7.11609ZM7.11609 19H17.8851C18.0644 19 18.2118 18.9423 18.3271 18.827C18.4424 18.7116 18.5001 18.5643 18.5001 18.385V10.1L12.8661 5.81398C12.7634 5.72398 12.6414 5.67898 12.5001 5.67898C12.3588 5.67898 12.2371 5.72365 12.1351 5.81298L6.50009 10.1V18.385C6.50009 18.5643 6.55775 18.7116 6.67309 18.827C6.78842 18.9423 6.93609 19 7.11609 19ZM7.11609 19H6.50009H18.5001H7.11609Z" fill="#BB5042"/>
<path d="M12.7761 16.645L12.165 14.7406L12.1521 14.7448L12.7761 16.645ZM13.0211 16.496L11.6767 15.0152L11.6581 15.0322L11.6398 15.0496L13.0211 16.496ZM14.1711 15.417L12.7782 13.9818L12.7769 13.9831L14.1711 15.417ZM16.0351 12.473L18.0351 12.4775V12.473H16.0351ZM15.4671 11.09L16.8623 9.65697L16.8609 9.65567L15.4671 11.09ZM13.2011 10.743L12.2978 8.95857L12.2943 8.96036L13.2011 10.743ZM12.5001 11.258L10.9677 12.5432L12.3987 14.2494L13.9419 12.644L12.5001 11.258ZM11.8221 10.743L12.7027 8.9473L12.6993 8.94561L11.8221 10.743ZM9.57109 11.091L10.9649 12.5253L10.9662 12.524L9.57109 11.091ZM9.24209 13.403L7.44733 14.2855L7.44881 14.2885L9.24209 13.403ZM11.9781 16.497L10.6053 17.9515L10.6102 17.9561L11.9781 16.497ZM12.2241 16.645L12.848 14.7448L12.8352 14.7406L12.2241 16.645ZM5.50009 18.385H7.50009H5.50009ZM5.50009 10.855H7.50009V6.75987L4.27043 9.27766L5.50009 10.855ZM3.96209 12.054L5.17066 13.6475L5.18126 13.6395L5.19174 13.6313L3.96209 12.054ZM3.16309 11.585L5.14563 11.8486L5.1471 11.8376L5.14844 11.8266L3.16309 11.585ZM3.35809 11.261L2.13973 9.67491L2.13146 9.68127L2.12325 9.68771L3.35809 11.261ZM11.5061 5.00198L10.3096 3.39933L10.2986 3.40754L10.2877 3.41591L11.5061 5.00198ZM13.4751 5.00298L14.6912 3.41521L14.6892 3.41364L13.4751 5.00298ZM21.6481 11.263L22.8817 9.68875L22.873 9.68193L22.8642 9.67521L21.6481 11.263ZM21.8411 11.585L23.83 11.3745L23.8288 11.3635L23.8275 11.3525L21.8411 11.585ZM21.7271 11.951L23.2969 13.1903L23.3094 13.1743L23.3217 13.1582L21.7271 11.951ZM21.4041 12.153L21.7193 14.128L21.7295 14.1263L21.4041 12.153ZM21.0441 12.049L22.2732 10.4713L22.2669 10.4664L21.0441 12.049ZM19.5001 10.856L20.7229 9.27336L17.5001 6.78318V10.856H19.5001ZM19.0281 19.528L20.4423 20.9422L20.4438 20.9407L19.0281 19.528ZM7.11609 19V17V19ZM18.5001 18.385H16.5001H18.5001ZM18.5001 10.1H20.5001V9.10851L19.711 8.50822L18.5001 10.1ZM12.8661 5.81398L11.5477 7.31792L11.5999 7.3637L11.6552 7.40574L12.8661 5.81398ZM12.1351 5.81298L13.346 7.40471L13.4009 7.36296L13.4528 7.31752L12.1351 5.81298ZM6.50009 10.1L5.28913 8.50826L4.50009 9.10855V10.1H6.50009ZM12.5001 18.689C12.8052 18.689 13.1079 18.6411 13.4 18.5452L12.1521 14.7448C12.2656 14.7075 12.3843 14.689 12.5001 14.689V18.689ZM13.3872 18.5493C13.79 18.4201 14.1297 18.2028 14.4023 17.9424L11.6398 15.0496C11.7645 14.9305 11.9409 14.8125 12.165 14.7406L13.3872 18.5493ZM14.3655 17.9767C14.7863 17.5947 15.1863 17.2194 15.5653 16.8509L12.7769 13.9831C12.4332 14.3172 12.0666 14.6613 11.6767 15.0152L14.3655 17.9767ZM15.564 16.8522C15.9715 16.4567 16.3425 16.0583 16.6721 15.6568L13.5801 13.1192C13.3603 13.3869 13.0946 13.6746 12.7782 13.9818L15.564 16.8522ZM16.6721 15.6568C17.0199 15.233 17.3239 14.7866 17.5653 14.3165L14.0069 12.4894C13.9176 12.6633 13.7816 12.8736 13.5801 13.1192L16.6721 15.6568ZM17.5653 14.3165C17.8444 13.7728 18.0336 13.1525 18.0351 12.4775L14.0351 12.4685C14.0351 12.4507 14.0364 12.4363 14.0378 12.4261C14.0392 12.4159 14.0406 12.411 14.0404 12.4117C14.0399 12.4135 14.0328 12.439 14.0069 12.4894L17.5653 14.3165ZM18.0351 12.473C18.0351 11.4083 17.6475 10.4215 16.8623 9.65697L14.0719 12.523C14.0765 12.5275 14.0728 12.5246 14.0653 12.5136C14.0576 12.5024 14.0496 12.4879 14.043 12.472C14.0366 12.4563 14.0341 12.4453 14.0335 12.4423C14.0331 12.4397 14.0351 12.4489 14.0351 12.473H18.0351ZM16.8609 9.65567C16.1047 8.9208 15.147 8.53898 14.1001 8.53898V12.539C14.1183 12.539 14.1242 12.5405 14.1203 12.5398C14.1162 12.539 14.1066 12.5367 14.0941 12.5317C14.0816 12.5267 14.0719 12.5212 14.0663 12.5174C14.0608 12.5138 14.0634 12.5147 14.0733 12.5243L16.8609 9.65567ZM14.1001 8.53898C13.4869 8.53898 12.8731 8.66734 12.2978 8.95858L14.1044 12.5274C14.0976 12.5308 14.0906 12.5338 14.0841 12.5361C14.0775 12.5385 14.0726 12.5398 14.0699 12.5404C14.064 12.5417 14.0724 12.539 14.1001 12.539V8.53898ZM12.2943 8.96036C11.8367 9.19313 11.4197 9.49595 11.0582 9.87195L13.9419 12.644C13.9778 12.6067 14.0281 12.5662 14.1079 12.5256L12.2943 8.96036ZM14.0325 9.97276C13.6548 9.52248 13.1943 9.1884 12.7027 8.94731L10.9414 12.5387C10.9754 12.5553 10.9898 12.5661 10.9908 12.5669C10.9914 12.5673 10.9891 12.5656 10.9847 12.5614C10.9803 12.5572 10.9744 12.5512 10.9677 12.5432L14.0325 9.97276ZM12.6993 8.94561C12.1469 8.67602 11.5522 8.53898 10.9381 8.53898V12.539C10.9426 12.539 10.9447 12.5392 10.9448 12.5392C10.9449 12.5392 10.9439 12.5391 10.9424 12.5388C10.9417 12.5386 10.941 12.5384 10.9405 12.5383C10.9402 12.5382 10.94 12.5381 10.9399 12.5381C10.9398 12.5381 10.9397 12.538 10.9397 12.538C10.9397 12.538 10.9396 12.538 10.9396 12.538C10.9396 12.538 10.9397 12.538 10.9397 12.538C10.9397 12.538 10.9398 12.5381 10.9399 12.5381C10.9401 12.5382 10.9404 12.5383 10.9408 12.5385C10.9416 12.5388 10.943 12.5394 10.9449 12.5404L12.6993 8.94561ZM10.9381 8.53898C9.89 8.53898 8.93193 8.92197 8.17595 9.65794L10.9662 12.524C10.9762 12.5143 10.9788 12.5135 10.9733 12.5171C10.9676 12.5208 10.9578 12.5264 10.9452 12.5315C10.9326 12.5366 10.9228 12.5389 10.9185 12.5397C10.9144 12.5405 10.9201 12.539 10.9381 12.539V8.53898ZM8.17725 9.65667C7.39016 10.4216 7.00409 11.4095 7.00409 12.473H11.0041C11.0041 12.4484 11.0062 12.4388 11.0057 12.4412C11.0052 12.4441 11.0027 12.4551 10.9962 12.4711C10.9895 12.4873 10.9813 12.5022 10.9732 12.514C10.9653 12.5256 10.961 12.5291 10.9649 12.5253L8.17725 9.65667ZM7.00409 12.473C7.00409 13.1338 7.18151 13.7449 7.44734 14.2855L11.0368 12.5204C11.0109 12.4678 11.0028 12.4389 11.0011 12.4326C10.9998 12.4274 11.0041 12.4422 11.0041 12.473H7.00409ZM7.44881 14.2885C7.68768 14.7722 7.9945 15.2282 8.34709 15.6578L11.4391 13.1202C11.2423 12.8804 11.1152 12.6791 11.0354 12.5175L7.44881 14.2885ZM8.34709 15.6578C8.67707 16.0599 9.04853 16.4583 9.45654 16.8535L12.2396 13.9805C11.9236 13.6744 11.6584 13.3874 11.4391 13.1202L8.34709 15.6578ZM9.45654 16.8535C9.82517 17.2106 10.2081 17.5766 10.6053 17.9515L13.3508 15.0425C12.9654 14.6787 12.595 14.3247 12.2396 13.9805L9.45654 16.8535ZM10.6102 17.9561C10.8811 18.21 11.2166 18.4221 11.613 18.5493L12.8352 14.7406C13.0529 14.8105 13.2244 14.9239 13.346 15.0379L10.6102 17.9561ZM11.6001 18.5452C11.8923 18.6411 12.195 18.689 12.5001 18.689V14.689C12.6159 14.689 12.7346 14.7075 12.848 14.7448L11.6001 18.5452ZM7.11609 18C7.13112 18 7.18551 18.0037 7.25689 18.0332C7.32853 18.0627 7.37207 18.0995 7.3863 18.1138L4.55787 20.9422C5.25044 21.6348 6.14167 22 7.11609 22V18ZM7.3863 18.1138C7.40024 18.1277 7.43704 18.1711 7.46667 18.2429C7.49621 18.3144 7.50009 18.3692 7.50009 18.385H3.50009C3.50009 19.3596 3.86593 20.2503 4.55787 20.9422L7.3863 18.1138ZM7.50009 18.385V10.855H3.50009V18.385H7.50009ZM4.27043 9.27766L2.73243 10.4767L5.19174 13.6313L6.72974 12.4323L4.27043 9.27766ZM2.75351 10.4604C2.85844 10.3809 3.01887 10.285 3.23492 10.2236C3.45786 10.1603 3.69383 10.1471 3.92148 10.1846L3.27069 14.1313C4.03167 14.2568 4.69655 14.0071 5.17066 13.6475L2.75351 10.4604ZM3.92148 10.1846C4.13084 10.2191 4.33005 10.2968 4.50417 10.409C4.67365 10.5181 4.78961 10.6404 4.86333 10.7371L1.68284 13.1629C2.02643 13.6134 2.55841 14.0139 3.27069 14.1313L3.92148 10.1846ZM4.86333 10.7371C4.93983 10.8374 5.03157 10.9892 5.09302 11.1931C5.1563 11.4031 5.17498 11.628 5.14563 11.8486L1.18054 11.3213C1.08204 12.062 1.33192 12.7028 1.68284 13.1629L4.86333 10.7371ZM5.14844 11.8266C5.12235 12.041 5.05062 12.2519 4.93692 12.4408C4.82613 12.6249 4.69731 12.7523 4.59292 12.8343L2.12325 9.68771C1.65902 10.0521 1.26666 10.6126 1.17773 11.3434L5.14844 11.8266ZM4.57644 12.847L12.7244 6.58805L10.2877 3.41591L2.13973 9.67491L4.57644 12.847ZM12.7025 6.60463C12.6707 6.62839 12.6287 6.65079 12.5836 6.66513L11.3726 2.85283C10.9875 2.97517 10.6308 3.15957 10.3096 3.39933L12.7025 6.60463ZM12.5836 6.66513C12.5699 6.66947 12.5535 6.67346 12.5354 6.67621C12.5172 6.67896 12.5001 6.68004 12.4851 6.67992L12.5151 2.68004C12.1262 2.67712 11.7428 2.73525 11.3726 2.85283L12.5836 6.66513ZM12.4851 6.67992C12.4787 6.67988 12.4679 6.67931 12.4537 6.6771C12.4394 6.67486 12.424 6.67133 12.4086 6.66644L13.6176 2.85352C13.2563 2.73897 12.8862 2.68282 12.5151 2.68004L12.4851 6.67992ZM12.4086 6.66644C12.3411 6.64504 12.2905 6.61488 12.261 6.59232L14.6892 3.41364C14.3716 3.17108 14.0131 2.97892 13.6176 2.85352L12.4086 6.66644ZM12.259 6.59075L20.432 12.8508L22.8642 9.67521L14.6912 3.41521L12.259 6.59075ZM20.4145 12.8372C20.3087 12.7543 20.1782 12.6252 20.0664 12.4387C19.9516 12.2472 19.88 12.0338 19.8546 11.8174L23.8275 11.3525C23.7416 10.6181 23.3481 10.0543 22.8817 9.68875L20.4145 12.8372ZM19.8522 11.7954C19.8299 11.5851 19.8517 11.3731 19.9131 11.1762C19.9728 10.9845 20.0593 10.8405 20.1325 10.7438L23.3217 13.1582C23.6627 12.7077 23.9057 12.0901 23.83 11.3745L19.8522 11.7954ZM20.1573 10.7117C20.2345 10.614 20.3517 10.4955 20.5184 10.3913C20.6889 10.2847 20.8805 10.2123 21.0787 10.1796L21.7295 14.1263C22.4172 14.0129 22.9455 13.6354 23.2969 13.1903L20.1573 10.7117ZM21.0889 10.178C21.3119 10.1424 21.5479 10.1549 21.7752 10.2206C21.9963 10.2844 22.1622 10.3848 22.2732 10.4713L19.8149 13.6267C20.2973 14.0025 20.9647 14.2484 21.7192 14.128L21.0889 10.178ZM22.2669 10.4664L20.7229 9.27336L18.2772 12.4386L19.8213 13.6316L22.2669 10.4664ZM17.5001 10.856V18.385H21.5001V10.856H17.5001ZM17.5001 18.385C17.5001 18.3685 17.5041 18.3135 17.5335 18.2424C17.5629 18.1711 17.5993 18.1284 17.6124 18.1153L20.4438 20.9407C21.1337 20.2493 21.5001 19.3598 21.5001 18.385H17.5001ZM17.6139 18.1138C17.6278 18.0998 17.6712 18.063 17.743 18.0334C17.8145 18.0039 17.8693 18 17.8851 18V22C18.8597 22 19.7504 21.6341 20.4423 20.9422L17.6139 18.1138ZM17.8851 18H7.11609V22H17.8851V18ZM7.11609 21H17.8851V17H7.11609V21ZM17.8851 21C18.5369 21 19.2118 20.7707 19.7413 20.2412L16.9129 17.4128C17.0441 17.2815 17.2099 17.1692 17.4011 17.0943C17.5886 17.0209 17.7584 17 17.8851 17V21ZM19.7413 20.2412C20.2708 19.7117 20.5001 19.0368 20.5001 18.385H16.5001C16.5001 18.2582 16.521 18.0885 16.5944 17.901C16.6693 17.7098 16.7817 17.544 16.9129 17.4128L19.7413 20.2412ZM20.5001 18.385V10.1H16.5001V18.385H20.5001ZM19.711 8.50822L14.077 4.22222L11.6552 7.40574L17.2892 11.6917L19.711 8.50822ZM14.1845 4.31004C13.7032 3.88817 13.1078 3.67898 12.5001 3.67898V7.67898C12.3551 7.67898 12.1846 7.65521 12.0055 7.58915C11.8253 7.5227 11.6712 7.42622 11.5477 7.31792L14.1845 4.31004ZM12.5001 3.67898C11.8964 3.67898 11.3006 3.88523 10.8174 4.30844L13.4528 7.31752C13.3276 7.42713 13.1724 7.52375 12.9921 7.58995C12.813 7.6557 12.6433 7.67898 12.5001 7.67898V3.67898ZM10.9241 4.22125L5.28913 8.50826L7.71104 11.6917L13.346 7.40471L10.9241 4.22125ZM4.50009 10.1V18.385H8.50009V10.1H4.50009ZM4.50009 18.385C4.50009 19.0368 4.72936 19.7117 5.25887 20.2412L8.0873 17.4128C8.21852 17.544 8.33091 17.7098 8.40576 17.901C8.47915 18.0885 8.50009 18.2582 8.50009 18.385H4.50009ZM5.25887 20.2412C5.78987 20.7722 6.46596 21 7.11609 21V17C7.24157 17 7.4106 17.0206 7.59787 17.0937C7.78899 17.1684 7.95533 17.2808 8.0873 17.4128L5.25887 20.2412ZM7.11609 17H6.50009V21H7.11609V17ZM6.50009 21H18.5001V17H6.50009V21ZM18.5001 17H7.11609V21H18.5001V17Z" fill="#BB5042" mask="url(#path-1-inside-1_1281_21222)"/>
</svg>
