<svg width="439" height="438" viewBox="0 0 439 438" fill="none" xmlns="http://www.w3.org/2000/svg">
<path d="M392.326 123.306C388.165 112.669 382.327 102.767 375.034 93.9773C356.331 71.3415 329.14 56.4232 300.574 47.4617C252.805 32.412 198.651 31.7025 150.471 45.552C113.679 56.1341 78.3238 80.4782 62.8711 116.911C45.1935 158.617 55.2675 207.682 76.5718 246.042C95.7036 280.469 125.365 310.376 162.674 323.007C204.371 337.12 250.869 328.263 291.008 310.174C328.588 293.215 363.357 267.399 384.091 231.755C402.864 199.535 405.983 158.355 392.326 123.306Z" fill="#BBC9FF"/>
<mask id="mask0_506_6632" style="mask-type:luminance" maskUnits="userSpaceOnUse" x="0" y="0" width="439" height="438">
<path d="M438.5 0H0.5V438H438.5V0Z" fill="white"/>
</mask>
<g mask="url(#mask0_506_6632)">
<path d="M359.073 364.416C361.412 349.226 363.585 326.529 363.655 294.248C363.786 242.748 374.649 202.409 380.089 181.691C382.244 173.518 382.112 160.851 361.316 160.851H269.406C269.406 160.851 236.994 233.559 231.055 258.49C226.798 276.273 221.349 333.152 218.598 364.416H359.073Z" fill="#86848D"/>
<path d="M348.649 364.416C350.997 349.226 353.161 326.529 353.24 294.248C353.292 272.427 354.405 256.248 356.472 240.751C357.741 231.482 355.836 222.056 351.067 214.007C347.379 207.805 344.725 196.671 348.789 176.978C351.829 162.288 357.085 160.851 357.085 160.851H269.406C254.838 160.851 241.9 169.156 237.275 181.481C228.462 204.984 219.474 242.118 215.559 258.525C211.301 276.273 205.853 333.152 203.058 364.451L348.649 364.416Z" fill="#696A73"/>
<path d="M262.1 438.053C262.1 438.053 255.758 498.961 253.121 528.333C252.613 534.018 252.245 538.521 252.096 541.175C252.009 542.708 251.869 545.494 251.711 549.296H200.202C198.187 532.012 197.907 517.541 197.574 508.93C196.216 468.564 206.264 415.084 202.594 409.364C200.842 406.587 203.584 397.853 206.912 389.619C206.991 389.408 207.061 389.207 207.149 389.005C210.653 380.517 214.56 372.703 214.56 372.703L235.032 378.248L248.242 381.813L252.219 397.704L257.142 417.791L262.1 438.053Z" fill="#38455B"/>
<g style="mix-blend-mode:multiply" opacity="0.32">
<path d="M262.109 438.053C262.109 438.053 255.758 498.961 253.13 528.333C252.622 534.018 252.254 538.53 252.096 541.175C252.009 542.708 251.869 545.494 251.72 549.296H232.684C235.12 527.177 236.705 506.372 242.32 484.708C248.908 459.611 257.142 417.791 257.142 417.791L262.109 438.053Z" fill="#6B7C91"/>
</g>
<path d="M313.276 549.296H256.783C255.232 540.79 254.155 533.931 253.121 528.333C252.438 524.382 251.807 521.071 251.15 518.233C245.754 495.089 240.419 440.444 237.371 405.422C237.073 402.014 236.801 398.781 236.547 395.786C235.908 388.156 235.417 382.05 235.111 378.266C234.9 375.462 234.787 373.886 234.787 373.886L317.078 384.503C317.078 384.503 317.7 390.819 318.497 400.437C319.373 410.826 320.424 425.079 321.125 439.402C322.492 466.146 313.784 525.714 313.276 549.296Z" fill="#38455B"/>
<path d="M318.462 400.437L317.972 401.41C317.972 401.41 280.593 400.586 252.184 397.739C247.909 397.31 243.844 396.863 240.139 396.32L236.512 395.794C219.29 393.219 210.697 390.862 206.956 389.619C207.035 389.408 207.105 389.207 207.193 389.005C210.697 380.517 214.604 372.703 214.604 372.703L235.076 378.248C234.865 375.445 234.752 373.868 234.752 373.868L317.043 384.485C317.043 384.485 317.7 390.819 318.462 400.437Z" fill="#2F394B"/>
<path d="M244.002 392.501C241.736 406.934 240.821 421.548 241.269 436.152C241.821 449.791 241.821 460.68 241.821 460.68L254.138 450.711C254.138 450.711 252.727 420.305 253.262 414.304C253.796 408.304 256.529 394.664 256.529 394.664" stroke="#2F394B" stroke-width="0.92" stroke-miterlimit="10"/>
<g style="mix-blend-mode:multiply" opacity="0.32">
<path d="M313.285 549.296H300.793C300.793 521.579 304.963 458.884 303.465 452.515C301.275 443.238 298.007 423.047 288.731 416.503C283.851 413.069 248.671 402.259 242.898 399.973C242.557 399.833 216.539 396.11 207.236 389.005C210.688 380.517 214.639 372.712 214.639 372.712L235.119 378.248C234.9 375.445 234.787 373.868 234.787 373.868L317.087 384.494C317.087 384.494 319.759 411.799 321.151 439.384C322.492 466.146 313.793 525.714 313.285 549.296Z" fill="#6B7C91"/>
</g>
<path d="M291.753 185.055C288.678 181.665 279.042 162.875 277.29 155.052C276.984 155.052 264.702 171.477 256.179 171.241C254.865 175.883 256.003 188.98 255.39 190.372C252.929 195.944 246.674 198.256 246.674 198.256C246.674 198.256 211.362 251.981 231.782 254.504C246.367 256.309 280.838 228.662 299.304 212.754C302.983 209.574 306.023 206.876 308.143 204.967C310.263 203.057 311.48 201.927 311.48 201.927C311.48 201.927 310.701 201.559 309.457 200.928C304.919 198.642 294.705 188.34 291.753 185.055Z" fill="#E7B2A1"/>
<path d="M264.614 189.987C265.42 189.032 266.209 188.069 266.98 187.079C268.955 184.607 270.714 181.969 272.236 179.195C273.486 176.811 274.532 174.326 275.363 171.766C276.896 167.123 277.991 161.701 276.379 156.927C274.627 158.906 263.703 172.458 255.96 172.239C254.672 176.698 255.784 189.295 255.189 190.635C253.121 195.234 248.321 197.547 246.998 198.107C248.181 197.959 249.354 197.766 250.502 197.512C255.702 196.391 260.491 193.856 264.343 190.188L264.614 189.987Z" fill="#DE9385"/>
<path d="M228.585 203.232C218.432 206.281 203.566 220.752 196.216 225.894C184.11 234.409 171.478 222.294 171.478 222.294C171.478 222.294 157.462 260.067 171.18 268.529C175.56 271.236 188.7 267.784 199.501 263.545C211.529 258.814 222.619 251.421 227.533 243.984C237.388 229.083 228.585 203.232 228.585 203.232Z" fill="#7587D6"/>
<path d="M334.23 262.949C332.934 272.042 323.175 330.874 320.661 370.487C319.653 386.482 321.318 388.007 320.459 397.897C320.083 402.277 319.811 403.924 304.691 405.579C289.572 407.235 260.015 404.493 247.664 402.583C230.897 399.955 220.674 401.199 213.763 399.657C210.648 399.077 207.848 397.391 205.879 394.91C199.203 386.535 215.436 373.886 215.208 356.471C215.138 351.092 214.244 245.385 215.76 239.516C217.275 233.647 219.676 225.114 221.839 217.616L223.109 213.236C224.115 209.514 225.991 206.085 228.584 203.232L247.594 196.715L248.776 196.907L256.135 203.355L298.883 192.028L330.139 211.09C330.139 211.09 333.231 231.623 334.23 247.794C334.624 253.917 334.712 259.436 334.23 262.949Z" fill="#7587D6"/>
<path d="M260.725 338.951C260.725 338.951 292.48 314.808 298.191 310.708C301.356 308.546 304.099 305.824 306.286 302.675C306.286 302.675 302.186 276.203 302.186 261.171C302.186 238.692 310.228 228.759 320.17 226.577C320.17 226.577 320.17 257.316 324.252 275.677C328.335 294.038 333.433 311.374 333.433 311.374C333.433 311.374 304.341 316.928 295.423 320.66C286.506 324.392 270.72 339.748 270.72 339.748L260.725 338.951Z" fill="#6076CF"/>
<g style="mix-blend-mode:multiply" opacity="0.32">
<path d="M252.946 219.07C252.946 219.07 247.515 334.553 245.938 347.711L255.329 363.75C255.329 363.75 268.688 353.238 269.161 347.895C269.634 342.551 260.646 217.09 260.646 217.09L252.946 219.07Z" fill="#6B7C91"/>
</g>
<path d="M251.711 218.255C251.711 218.255 244.694 333.756 243.126 346.896L252.517 362.936C252.517 362.936 265.885 352.424 266.349 347.08C266.813 341.736 259.954 218.22 259.954 218.22L251.711 218.255Z" fill="#CB5361"/>
<path d="M246.148 204.87L251.711 218.264L259.928 218.229L276.239 206.044L254.996 203.206L246.148 204.87Z" fill="#CB5361"/>
<path d="M293.146 185.502C293.146 185.502 281.863 193.386 277.378 195.725C270.682 199.25 263.521 201.81 256.108 203.328L271.254 217.625C271.254 217.625 282.896 210.065 286.269 207.402C298.857 197.459 298.857 192.002 298.857 192.002L293.146 185.502Z" fill="#7587D6"/>
<path d="M256.135 203.328L246.148 211.063C241.943 204.835 246.35 196.425 246.35 196.425L252.21 193.894C252.21 193.894 251.702 197.328 252.622 199.089C253.615 200.641 254.794 202.065 256.135 203.328Z" fill="#7587D6"/>
<path d="M256.135 203.328C254.619 204.8 253.025 206.193 251.422 207.559C249.819 208.926 248.181 210.249 246.516 211.554L245.991 211.966L245.632 211.405C244.889 210.275 244.358 209.019 244.064 207.7C243.797 206.395 243.727 205.057 243.853 203.731C244.003 202.43 244.297 201.149 244.729 199.912C245.137 198.683 245.69 197.506 246.376 196.408C245.52 198.779 245.024 201.266 244.905 203.784C244.869 205.003 244.99 206.222 245.264 207.411C245.561 208.576 246.04 209.688 246.683 210.704L245.807 210.564C247.48 209.285 249.171 208.032 250.896 206.815C252.622 205.597 254.33 204.432 256.135 203.328Z" fill="#5769BF"/>
<path d="M256.135 203.328C257.466 204.45 258.763 205.597 260.077 206.736C261.391 207.875 262.705 209.031 263.966 210.196L267.829 213.7C269.126 214.857 270.387 216.048 271.675 217.204L270.965 217.143L278.946 211.808C280.277 210.926 281.6 210.03 282.914 209.119C284.219 208.199 285.542 207.323 286.751 206.307C289.27 204.368 291.642 202.245 293.847 199.956C294.941 198.804 295.952 197.574 296.869 196.277C297.829 195.007 298.515 193.551 298.884 192.002C298.676 193.609 298.107 195.148 297.219 196.504C296.399 197.899 295.449 199.213 294.381 200.429C292.275 202.877 289.956 205.134 287.452 207.174C284.964 209.268 282.275 211.02 279.638 212.842C277.001 214.664 274.303 216.39 271.587 218.098L271.202 218.343L270.887 218.028C269.643 216.819 268.381 215.627 267.155 214.401L263.449 210.739C262.205 209.519 260.979 208.289 259.77 207.051C258.553 205.86 257.335 204.59 256.135 203.328Z" fill="#5769BF"/>
<path d="M224.73 118.523C221.226 121.703 217.81 126.556 218.283 130.139C218.756 133.721 217.547 146.651 220.534 152.039C224.686 159.563 225.098 168.455 227.761 175.226C230.424 181.998 240.411 190.521 242.566 191.424C249.162 194.183 253.568 192.3 257.186 189.672C260.804 187.044 281.399 169.944 277.29 155.052C277.29 155.052 283.886 153.09 286.926 138.145C287.723 134.247 271.368 123.77 268.819 120.021C262.626 110.893 240.104 118.961 233.665 119.644C227.227 120.327 224.73 118.523 224.73 118.523Z" fill="#E7B2A1"/>
<path d="M219.886 130.743C222.882 127.309 226.561 126.451 236.11 126.319C245.658 126.188 255.872 121.782 259.683 118.172C259.683 118.172 244.791 113.197 232.667 117.156C220.543 121.116 218.52 122.412 218.52 122.412L219.886 130.743Z" fill="#DE9385"/>
<path d="M291.087 137.041C287.811 146.257 283.562 167.15 283.264 168.937C283.264 168.937 279.296 161.131 277.789 158.057C276.283 154.982 277.159 154.737 277.159 154.737C277.159 154.737 282.695 154.027 283.185 145.486C283.431 141.062 283.185 134.527 279.489 134.308C275.906 134.124 273.821 142.192 273.716 142.604C273.432 140.579 272.993 138.579 272.402 136.621C271.526 133.66 266.541 131.637 264.124 129.552C261.706 127.467 259.682 118.164 259.682 118.164C259.341 118.269 256.406 119.162 250.108 121.571C239.359 125.671 225.764 126.494 225.764 126.494C218.116 127.476 218.589 136.446 218.686 136.761C218.633 136.612 216.645 134.93 216.364 127.633C215.891 115.702 226.596 104.209 240.016 100.959C263.248 95.3264 271.105 106.434 271.105 106.434C276.127 106.291 281.055 107.813 285.121 110.761C293.557 117.244 294.976 126.083 291.087 137.041Z" fill="#553823"/>
<path d="M252.631 147.65C252.631 147.65 246.209 152.03 239.21 151.092C239.21 151.092 239.307 152.406 241.225 152.722C242.915 152.869 244.616 152.645 246.209 152.065C252.578 149.796 252.631 147.65 252.631 147.65Z" fill="#553823"/>
<path d="M236.731 141.395C236.731 141.395 235.952 139.775 238.238 137.891C241.111 135.526 243.652 134.825 253.069 139.118C253.069 139.118 254.094 139.915 252.333 139.722C250.572 139.529 240.901 137.926 236.731 141.395Z" fill="#553823"/>
<path d="M226.105 155.718C225.229 155.805 225.913 156.699 227.472 156.524C228.95 156.378 230.376 155.899 231.642 155.122C232.999 154.123 232.518 153.037 232.518 153.037C230.623 154.426 228.425 155.345 226.105 155.718Z" fill="#553823"/>
<path d="M221.287 146.292C222.216 142.534 225.116 141.509 226.955 141.711C228.392 141.877 227.954 143.612 227.954 143.612C224.222 144.12 222.943 146.704 221.734 147.992C221.539 147.759 221.398 147.486 221.32 147.192C221.243 146.898 221.232 146.591 221.287 146.292Z" fill="#553823"/>
<path d="M275.897 136.306L253.875 140.572C252.605 140.782 248.619 141.781 247.454 142.131C244.475 143.007 238.956 144.759 237.441 146.187C235.926 147.615 236.127 148.447 235.251 148.692C234.375 148.938 234.235 148.132 232.22 147.711C230.205 147.291 225.957 148.92 222.978 149.796C221.595 150.11 220.258 150.601 219.001 151.259C218.195 151.785 218.66 152.906 219.343 154.763C220.218 157.018 221.34 159.168 222.689 161.175C224.345 163.681 225.606 164.206 229.014 163.111C233.946 161.526 234.603 156.191 234.734 154.001C234.866 151.811 235.181 151.434 235.926 151.215C236.67 150.996 237.213 151.128 238.413 152.967C239.613 154.807 240.849 159.187 245.973 158.547C252.683 157.715 253.314 155.604 253.77 151.609C254.4 146.196 254.111 146.231 254.549 145.67C254.956 145.317 255.302 144.9 255.574 144.435L263.458 142.534C264.202 141.712 265.004 140.945 265.858 140.239C269.143 139.284 273.243 138.767 274.513 139.153C274.881 138.161 275.344 137.207 275.897 136.306ZM233.376 156.261C233.543 158.941 231.326 161.578 228.12 162.524C225.098 163.4 223.845 161.464 222.926 159.896C221.174 157.032 220.657 154.456 221.077 153.519C221.498 152.582 221.778 152.249 225.554 151.364C229.329 150.479 231.598 149.612 232.395 150.987C233.013 152.679 233.344 154.461 233.376 156.261ZM252.342 150.129C252.167 154.01 251.545 155.954 249.136 156.69C243.687 158.363 241.882 156.471 240.691 154.062C239.834 152.491 239.242 150.789 238.939 149.025C238.939 147.405 240.148 146.975 243.809 145.679C247.471 144.382 250.204 143.927 251.019 144.479C251.834 145.031 252.499 146.791 252.342 150.164V150.129Z" fill="#302A26"/>
<path d="M234.874 152.643C234.874 152.643 233.446 160.212 231.519 164.522C229.942 168.026 229.828 169.147 232.001 169.778C234.173 170.408 239.254 169.489 239.254 169.489" fill="#E7B2A1"/>
<path d="M234.874 152.643C234.64 154.811 234.283 156.963 233.806 159.09C233.336 161.234 232.679 163.333 231.843 165.363C231.409 166.244 231.136 167.197 231.038 168.175C231.081 168.525 231.178 168.648 231.554 168.84C231.759 168.934 231.97 169.013 232.185 169.077C232.41 169.136 232.638 169.18 232.868 169.208C234.969 169.312 237.074 169.194 239.149 168.858L239.368 170.093C237.182 170.583 234.938 170.76 232.702 170.619C232.406 170.585 232.113 170.53 231.826 170.452C231.524 170.367 231.23 170.253 230.95 170.111C230.607 169.937 230.308 169.688 230.074 169.383C229.845 169.047 229.718 168.652 229.706 168.245C229.813 167.059 230.156 165.906 230.713 164.855C231.635 162.918 232.411 160.915 233.035 158.863C233.666 156.804 234.27 154.737 234.874 152.643Z" fill="#D38576"/>
<path d="M275.792 145.267C274.11 144.873 277.325 144.812 277.465 141.868C277.605 138.925 279.787 136.612 279.944 140.178C280.102 143.743 280.584 146.152 280.032 148.237C279.48 150.322 276.861 150.786 276.791 149.244C276.721 147.702 277.29 145.618 275.792 145.267Z" fill="#DE9385"/>
<path d="M237.651 178.651C238.369 176.023 241.225 174.823 242.557 174.368C243.874 173.939 245.268 173.795 246.646 173.946C248.023 174.097 249.353 174.539 250.546 175.244C248.026 174.765 245.427 174.897 242.968 175.629C241.786 175.98 238.422 177.548 237.651 178.651Z" fill="#D38576"/>
<path d="M195.7 173.904C193.755 170.811 192.196 169.427 193.457 167.859C194.718 166.291 198.31 167.369 204.705 169.988C211.1 172.607 214.446 175.34 214.437 177.346C214.411 181.84 204.179 187.403 195.7 173.904Z" fill="#5769BF"/>
<path d="M234.208 127.843C233.761 125.023 228.891 124.961 228.076 125.137C227.262 125.312 219.045 125.916 217.564 127.186C216.084 128.457 207.587 133.397 205.414 135.692C203.242 137.988 199.475 143.682 198.809 145.801C198.143 147.921 201.656 150.663 201.656 150.663L204.424 151.776L234.208 127.843Z" fill="#E7B2A1"/>
<path d="M230.669 127.204C223.942 127.441 214.306 135 214.306 135C214.306 135 207.727 139.696 204.275 145.136C209.803 143.655 215.383 142.508 220.972 141.579C223.749 141.115 226.517 140.703 229.294 140.23C231.58 139.853 233.884 139.354 236.179 138.977C236.476 138.51 236.748 138.028 236.994 137.532C237.406 136.358 234.62 136.271 233.07 136.49C234.156 136.288 235.023 136.787 236.206 135.254C237.817 133.17 237.467 132.136 236.582 131.926C234.909 131.531 229.347 133.599 229.347 133.599C229.347 133.599 236.355 131.277 237.152 130.095C237.949 128.912 237.397 126.968 230.669 127.204Z" fill="#DE9385"/>
<path d="M236.994 128.553C236.569 128.178 236.062 127.908 235.514 127.765C233.762 127.196 231.933 126.901 230.091 126.889C227.026 127.386 223.988 128.041 220.99 128.851C219.08 129.376 210.6 136.227 209.032 137.506C208.927 137.585 201.463 142.876 198.783 145.819C198.206 147.539 197.74 149.295 197.39 151.075C196.9 154.027 196.391 160.79 195.27 163.602C194.797 164.802 192.922 169.313 190.89 174.175C188.131 180.877 185.082 188.252 185.082 188.463L202.094 193.719C202.094 193.719 207.21 176.996 209.742 173.229C212.273 169.462 216.89 167.281 220.078 161.429C223.267 155.578 222.523 148.246 223.784 147.562C225.045 146.879 228.865 142.149 229.478 141.43C230.091 140.712 232.045 141.36 233.858 141.019C235.487 140.712 236.845 138.391 236.486 137.515C236.475 137.464 236.453 137.416 236.423 137.374C236.393 137.332 236.355 137.296 236.311 137.269C235.522 136.726 230.634 136.498 230.634 136.498C232.034 136.108 233.402 135.61 234.725 135.009C235.004 134.868 235.266 134.694 235.505 134.492C236.556 133.616 237.257 132.302 236.381 131.864C236.263 131.804 236.135 131.766 236.004 131.75C234.331 131.505 228.751 132.294 228.751 132.294C229.985 131.896 231.239 131.566 232.509 131.304C233.964 131.031 235.339 130.432 236.53 129.552C237.117 129.245 237.274 128.868 236.994 128.553Z" fill="#E7B2A1"/>
<path d="M221.226 141.413C220.604 142.122 217.52 144.864 217.144 145.206C217.468 144.75 220.201 141.124 221.095 140.256C221.988 139.389 226.184 136.122 227.568 135.876C228.952 135.631 233.7 135.176 235.592 134.519C235.354 134.721 235.092 134.894 234.813 135.035C233.49 135.637 232.122 136.135 230.722 136.525C229.662 136.77 227.822 136.796 226.964 137.217C224.945 138.464 223.027 139.867 221.226 141.413Z" fill="#DE9385"/>
<path d="M234.979 139.372C233.743 139.798 232.44 139.994 231.134 139.95C230.082 139.994 228.698 140.554 226.263 143.042C223.968 145.381 221.971 146.748 220.63 151.802C219.5 156.042 218.134 163.059 214.253 165.012C213.054 165.579 211.952 166.33 210.986 167.237C210.618 167.885 210.25 168.534 209.917 169.199C208.362 172.57 207.024 176.038 205.913 179.58C204.626 183.207 203.285 186.825 202.296 190.539C202.024 191.537 201.761 192.554 201.542 193.578L202.138 193.771C202.138 193.771 207.254 177.048 209.785 173.282C212.317 169.515 216.934 167.334 220.122 161.482C223.311 155.63 222.566 148.298 223.828 147.615C225.089 146.931 228.908 142.201 229.522 141.483C230.135 140.764 232.088 141.413 233.902 141.071C235.531 140.764 236.889 138.443 236.53 137.567C236.206 138.277 236.249 138.837 234.979 139.372Z" fill="#DE9385"/>
<path d="M232.667 131.339C231.397 131.601 230.143 131.931 228.909 132.329C228.909 132.329 234.489 131.54 236.162 131.785C236.293 131.801 236.421 131.839 236.539 131.899C235.356 132.101 225.939 133.222 225.151 133.494C224.362 133.765 219.956 136.481 219.019 137.059C218.081 137.637 212.3 141.781 211.573 142.315L217.749 136.56C217.749 136.56 224.283 132.013 226.964 131.619C229.645 131.225 233.972 130.279 236.714 129.613C235.513 130.487 234.129 131.078 232.667 131.339Z" fill="#DE9385"/>
<path d="M235.549 127.765C233.937 127.861 232.115 127.949 230.661 127.931C227.272 127.998 223.911 128.559 220.683 129.595C218.931 130.235 210.627 136.358 209.067 137.479C210.635 136.2 219.115 129.35 221.025 128.825C224.023 128.015 227.061 127.36 230.126 126.862C231.97 126.883 233.798 127.187 235.549 127.765Z" fill="#DE9385"/>
<path d="M203.513 174.193L202.497 173.798C199.887 181.157 197.638 188.632 195.752 196.224C193.378 205.632 191.486 215.154 189.918 224.729C188.35 234.304 186.983 244.045 186.23 253.769C186.072 255.775 185.958 257.772 185.844 259.778C192.852 257.334 202.751 251.307 207.911 236.862C209.505 232.42 214.437 177.338 214.437 177.338C214.437 177.338 213.833 178.047 203.513 174.193Z" fill="#6076CF"/>
<path d="M182.682 260.917C188.49 259.971 198.065 253.558 204.792 234.733C206.378 230.292 214.428 177.346 214.428 177.346C214.428 177.346 213.824 178.047 203.505 174.193C194.105 170.689 193.448 167.859 193.448 167.859C193.448 167.859 174.255 215.268 171.469 222.268C165.74 236.73 163.138 264.097 182.682 260.917Z" fill="#7587D6"/>
<path d="M199.501 263.518C199.501 263.518 207.99 254.215 211.143 247.54C214.297 240.865 217.722 234.768 217.722 234.768L213.421 256.607C213.421 256.607 204.582 261.653 199.501 263.518Z" fill="#6076CF"/>
<path d="M-9.50334 359.975H512.671L450.292 401.094L-79.2417 398.799L-9.50334 359.975Z" fill="#BD917C"/>
<g style="mix-blend-mode:multiply" opacity="0.39">
<path d="M294.092 368.656C285.744 370.408 250.134 367.824 238.028 368.656C225.922 369.488 156.288 368.656 156.288 368.656L190.811 359.975H364.259C346.249 362.016 300.767 367.254 294.092 368.656Z" fill="#CE9BDF"/>
</g>
<path d="M-79.2417 398.799L450.291 401.094V448.766H-79.2417V398.799Z" fill="#B27E61"/>
<path d="M231.703 374.446H91.8057L120.179 363.146H260.076L231.703 374.446Z" fill="#F1F1FD"/>
<path d="M260.077 363.146L231.703 374.446V377.696L260.077 364.644V363.146Z" fill="#BBBBC4"/>
<path d="M231.703 374.446H91.8057V377.696H231.703V374.446Z" fill="#BBBBC4"/>
<path d="M238.002 344.899L231.213 346.204C231.213 346.204 221.226 343.392 216.636 342.595C215.945 342.43 215.234 342.368 214.525 342.411C212.88 342.676 211.222 342.846 209.558 342.919C208.214 343.401 206.895 343.95 205.607 344.566C205.075 344.803 204.531 345.014 203.978 345.197C203.058 345.941 199.37 346.992 198.17 347.238C196.977 347.509 195.726 347.322 194.666 346.712C194.292 346.506 193.957 346.236 193.676 345.915C192.572 344.566 195.516 343.287 198.249 341.421C200.982 339.555 210.916 335.718 212.72 335.228C214.525 334.737 229.907 337.786 229.907 337.786L238.002 344.899Z" fill="#E7B2A1"/>
<path d="M272.367 359.16C270.738 362.804 267.987 365.896 265.736 365.616C263.484 365.336 256.687 360.693 255.066 353.142C253.445 345.591 256.441 341.325 260.725 338.924C265.009 336.524 279.454 343.313 272.367 359.16Z" fill="#5769BF"/>
<path d="M259.218 356.138C259.218 356.138 252.683 356.462 247.909 359.475C243.135 362.489 240.445 362.979 238.168 362.471C235.33 361.788 229.11 360.255 227.498 360.036C225.886 359.817 220.683 361.989 219.544 363.058C218.405 364.127 214.989 367.307 211.827 366.895C208.664 366.483 210.513 362.357 210.513 362.357C210.513 362.357 206.684 366.475 203.978 365.642C201.271 364.81 202.401 363.522 202.401 363.522C202.401 363.522 199.449 365.327 197.67 362.427C195.892 359.528 204.302 349.287 207.044 346.467C209.785 343.646 226.771 337.602 229.933 337.777C233.096 337.952 241.978 339.809 246.262 340.405L253.034 341.281L259.218 356.138Z" fill="#E7B2A1"/>
<path d="M210.513 362.375C210.513 362.375 213.596 357.645 214.893 356.523C216.189 355.402 225.667 352.967 227.113 352.581C227.113 352.581 217.696 356.147 216.461 357.093C215.225 358.039 212.895 361.919 212.895 361.919L210.145 365.634C210.145 365.634 209.479 363.593 210.513 362.375Z" fill="#DE9385"/>
<path d="M202.007 363.812C202.007 363.812 206.834 356.217 208.139 354.622C209.444 353.028 218.651 348.779 220.105 348.184C220.105 348.184 208.988 351.688 207.622 352.8C206.255 353.913 202.778 359.668 202.778 359.668L200.22 364.048C200.22 364.048 201.262 363.96 202.007 363.812Z" fill="#DE9385"/>
<path d="M291.367 343.339C290.825 339.98 289.452 336.809 287.373 334.115C286.838 333.467 286.252 332.864 285.621 332.311C281.46 333.336 277.141 334.413 274.303 335.175C267.233 337.067 253.042 341.307 253.042 341.307L257.615 356.287C257.615 356.287 278.56 353.922 291.937 353.799C292.185 350.302 291.994 346.788 291.367 343.339Z" fill="#E7B2A1"/>
<path d="M330.139 211.063C332.049 212.859 337.454 216.845 340.055 227.199C343.489 240.865 344.435 267.198 346.187 288.808C349.034 324.199 347.221 330.856 343.954 338.478C340.686 346.099 265.771 365.634 265.771 365.634C265.771 365.634 271.027 364.556 267.733 351.661C264.702 339.704 260.725 338.942 260.725 338.942L313.206 307.02C313.206 307.02 309.702 279.751 306.023 261.083C299.313 227.278 330.139 211.063 330.139 211.063Z" fill="#7587D6"/>
<path d="M311.454 307.073C311.454 307.073 321.878 306.197 327.678 316.876" stroke="#5769BF" stroke-width="1.43" stroke-miterlimit="10"/>
<path d="M214.525 342.411C212.881 342.676 211.222 342.846 209.558 342.919C208.214 343.401 206.895 343.95 205.607 344.566C205.075 344.803 204.531 345.014 203.978 345.197C203.058 345.941 199.37 346.992 198.17 347.238C196.977 347.509 195.726 347.322 194.666 346.712C197.286 346.579 199.839 345.845 202.13 344.566C203.96 343.69 206.58 342.183 208.349 341.999C210.417 341.915 212.487 342.053 214.525 342.411Z" fill="#DE9385"/>
<path d="M210.241 355.104L201.954 356.401L185.222 229.065L190.908 230.625C192.287 231.006 193.531 231.767 194.498 232.822C195.465 233.877 196.115 235.183 196.374 236.59L216.522 346.213C216.706 347.21 216.689 348.235 216.472 349.226C216.254 350.216 215.841 351.154 215.255 351.982C214.67 352.811 213.925 353.514 213.064 354.05C212.203 354.586 211.243 354.945 210.241 355.104Z" fill="#BBBBC4"/>
<path d="M201.954 356.401L51.6062 351.32C50.2636 351.259 48.9812 350.745 47.9679 349.862C46.9546 348.98 46.2702 347.78 46.0261 346.458L25.0021 233.559C24.8439 232.695 24.8794 231.806 25.1062 230.957C25.3329 230.108 25.7452 229.32 26.3134 228.65C26.8815 227.979 27.5913 227.443 28.3916 227.08C29.1919 226.718 30.0628 226.537 30.9414 226.551L185.301 229.092C186.711 229.116 188.066 229.64 189.125 230.571C190.184 231.501 190.878 232.778 191.083 234.172L208.086 349.585C208.215 350.452 208.15 351.336 207.897 352.174C207.645 353.013 207.21 353.785 206.624 354.436C206.038 355.087 205.316 355.601 204.509 355.94C203.701 356.28 202.829 356.437 201.954 356.401Z" fill="#D6D6E1"/>
<path d="M129.956 385.773H95.1609L112.558 383.898L151.987 383.268L129.956 385.773Z" fill="#F1F1FD"/>
<path d="M129.956 385.773H95.1609V391.432H129.956V385.773Z" fill="#BBBBC4"/>
<path d="M129.956 391.432L151.987 385.405V383.268L129.956 385.773V391.432Z" fill="#BBBBC4"/>
<path d="M138.05 386.596L129.579 386.202L99.9001 385.773L95.1609 320.861H129.956L133.135 331.181L138.05 386.596Z" fill="#BBBBC4"/>
<path d="M129.579 386.202L95.1609 385.773V320.861H129.956L129.579 386.202Z" fill="#F1F1FD"/>
</g>
<path d="M387.762 336.48C394.651 336.48 400.236 335.539 400.236 334.378C400.236 333.217 394.651 332.276 387.762 332.276C380.872 332.276 375.288 333.217 375.288 334.378C375.288 335.539 380.872 336.48 387.762 336.48Z" fill="#BBBBC4"/>
<path d="M384.249 311.856C388.997 307.283 393.439 304.682 391.617 289.299C390.703 282.64 389.238 276.067 387.237 269.65C387.237 269.65 375.235 291.401 377.329 301.659C379.423 311.917 384.249 311.856 384.249 311.856Z" fill="#70B08E"/>
<path d="M385.852 324.339C385.852 324.339 375.883 316.814 381.998 304.857C388.112 292.899 396.329 287.766 396.329 287.766C396.329 287.766 398.957 303.832 396.066 313.976C393.176 324.12 385.852 324.339 385.852 324.339Z" fill="#517A68"/>
<path d="M370.855 291.463C370.855 291.463 373.045 306.775 375.174 312.294C379.011 322.245 385.686 322.473 387.525 315.062C389.987 305.146 370.855 291.463 370.855 291.463Z" fill="#5F9578"/>
<path d="M407.919 309C407.919 309 401.226 322.937 397.538 327.563C390.881 335.902 384.451 334.115 384.924 326.485C385.563 316.289 407.919 309 407.919 309Z" fill="#70B08E"/>
<path d="M388.147 333.756C383.54 333.756 380.044 334.781 373.352 325.075C370.502 320.757 367.989 316.227 365.836 311.523C365.836 311.523 382.523 317.112 386.553 324.12C390.583 331.128 388.147 333.756 388.147 333.756Z" fill="#517A68"/>
<path d="M387.762 378.178C394.651 378.178 400.236 377.237 400.236 376.076C400.236 374.914 394.651 373.973 387.762 373.973C380.872 373.973 375.288 374.914 375.288 376.076C375.288 377.237 380.872 378.178 387.762 378.178Z" fill="#D6D6E1"/>
<path d="M387.762 336.48C394.656 336.48 400.236 335.534 400.236 334.378V376.076H375.288V334.378C375.288 335.508 380.876 336.48 387.762 336.48Z" fill="#D6D6E1"/>
<path d="M159.906 112.654H104.989C101.353 112.654 97.8662 114.098 95.2952 116.669C92.7242 119.24 91.2798 122.727 91.2798 126.363V146.178C91.2798 149.814 92.7242 153.301 95.2952 155.872C97.8662 158.443 101.353 159.887 104.989 159.887H139.258L152.127 168.446C152.293 168.553 152.487 168.609 152.685 168.608C152.883 168.606 153.076 168.547 153.241 168.437C153.405 168.327 153.534 168.172 153.612 167.99C153.69 167.808 153.712 167.607 153.677 167.412L152.232 159.887H159.906C161.707 159.889 163.49 159.535 165.155 158.846C166.819 158.158 168.331 157.148 169.605 155.875C170.879 154.602 171.89 153.09 172.579 151.426C173.269 149.763 173.624 147.979 173.624 146.178V126.363C173.621 122.726 172.175 119.239 169.603 116.668C167.03 114.098 163.542 112.654 159.906 112.654Z" fill="#BB5042"/>
<path d="M112.935 132.504C112.242 132.504 111.564 132.709 110.988 133.094C110.412 133.479 109.963 134.027 109.697 134.667C109.432 135.307 109.363 136.012 109.498 136.691C109.633 137.371 109.967 137.995 110.457 138.485C110.947 138.976 111.571 139.309 112.251 139.444C112.931 139.58 113.635 139.51 114.276 139.245C114.916 138.98 115.463 138.531 115.848 137.955C116.233 137.378 116.439 136.701 116.439 136.008C116.439 135.078 116.069 134.187 115.412 133.53C114.755 132.873 113.864 132.504 112.935 132.504Z" fill="white"/>
<path d="M132.443 132.504C131.75 132.504 131.073 132.709 130.496 133.094C129.92 133.479 129.471 134.027 129.206 134.667C128.941 135.307 128.871 136.012 129.007 136.691C129.142 137.371 129.475 137.995 129.966 138.485C130.456 138.976 131.08 139.309 131.76 139.444C132.439 139.58 133.144 139.51 133.784 139.245C134.424 138.98 134.972 138.531 135.357 137.955C135.742 137.378 135.947 136.701 135.947 136.008C135.947 135.078 135.578 134.187 134.921 133.53C134.264 132.873 133.373 132.504 132.443 132.504Z" fill="white"/>
<path d="M151.952 132.504C151.259 132.504 150.581 132.709 150.005 133.094C149.429 133.479 148.98 134.027 148.714 134.667C148.449 135.307 148.38 136.012 148.515 136.691C148.65 137.371 148.984 137.995 149.474 138.485C149.964 138.976 150.588 139.309 151.268 139.444C151.948 139.58 152.652 139.51 153.293 139.245C153.933 138.98 154.48 138.531 154.865 137.955C155.25 137.378 155.456 136.701 155.456 136.008C155.456 135.078 155.087 134.187 154.429 133.53C153.772 132.873 152.881 132.504 151.952 132.504Z" fill="white"/>
</svg>
