<svg width="477" height="417" viewBox="0 0 477 417" fill="none" xmlns="http://www.w3.org/2000/svg">
<g clip-path="url(#clip0_766_7204)">
<path d="M261.73 3.84998H37.0498V304.14H261.73V3.84998Z" fill="#F1F8FE"/>
<path opacity="0.84" d="M144.88 304.14H121.92L241.62 3.84998H264.58L144.88 304.14Z" fill="white"/>
<path opacity="0.84" d="M69.0499 304.14H35.6699L155.37 3.84998H188.75L69.0499 304.14Z" fill="white"/>
<path opacity="0.84" d="M109.94 304.14H96.6396L216.34 3.84998H229.64L109.94 304.14Z" fill="white"/>
<path d="M261.73 3.84998H37.0498V304.14H261.73V3.84998Z" stroke="#C3D1EC" stroke-width="5" stroke-miterlimit="10"/>
<path d="M112.72 3.84998V304.14" stroke="#C3D1EC" stroke-width="5" stroke-miterlimit="10"/>
<path d="M186.07 3.84998V304.14" stroke="#C3D1EC" stroke-width="5" stroke-miterlimit="10"/>
<path d="M238.5 416.41C370.032 416.41 476.66 413.236 476.66 409.32C476.66 405.404 370.032 402.23 238.5 402.23C106.968 402.23 0.339844 405.404 0.339844 409.32C0.339844 413.236 106.968 416.41 238.5 416.41Z" fill="#E9E9E9"/>
<path d="M344.64 235.44H289.91V408.58H344.64V235.44Z" fill="#9E765C"/>
<path d="M344.63 408.58H456.59V235.44H344.63V408.58Z" fill="#D19F80"/>
<path d="M353 393.76H448.24V322.36H353V393.76Z" fill="#B48669"/>
<path d="M387.85 340.55H413.34C413.838 340.55 414.316 340.352 414.669 339.999C415.022 339.647 415.22 339.169 415.22 338.67C415.22 338.171 415.022 337.693 414.669 337.341C414.316 336.988 413.838 336.79 413.34 336.79H387.85C387.351 336.79 386.873 336.988 386.52 337.341C386.168 337.693 385.97 338.171 385.97 338.67C385.97 339.169 386.168 339.647 386.52 339.999C386.873 340.352 387.351 340.55 387.85 340.55Z" fill="#D19F80"/>
<path d="M353 317.37H448.24V284.74H353V317.37Z" fill="#B48669"/>
<path d="M387.85 302.93H413.34C413.837 302.93 414.313 302.733 414.666 302.383C415.018 302.032 415.217 301.557 415.22 301.06C415.22 300.561 415.022 300.083 414.669 299.731C414.316 299.378 413.838 299.18 413.34 299.18H387.85C387.351 299.18 386.873 299.378 386.52 299.731C386.168 300.083 385.97 300.561 385.97 301.06C385.972 301.557 386.172 302.032 386.524 302.383C386.876 302.733 387.353 302.93 387.85 302.93Z" fill="#D19F80"/>
<path d="M353 279.76H448.24V247.13H353V279.76Z" fill="#B48669"/>
<path d="M387.85 265.32H413.34C413.838 265.32 414.316 265.122 414.669 264.769C415.022 264.417 415.22 263.939 415.22 263.44C415.217 262.943 415.018 262.468 414.666 262.117C414.313 261.767 413.837 261.57 413.34 261.57H387.85C387.353 261.57 386.876 261.767 386.524 262.117C386.172 262.468 385.972 262.943 385.97 263.44C385.97 263.939 386.168 264.417 386.52 264.769C386.873 265.122 387.351 265.32 387.85 265.32Z" fill="#D19F80"/>
<path d="M404.93 164.05H336.4L345.49 194.81H414.02L404.93 164.05Z" fill="#8F8EBC"/>
<path d="M392.65 148.87H340.6L353.92 193.21H405.98L392.65 148.87Z" fill="#DBDBF2"/>
<path d="M390.2 235.72H305.34V191C305.339 190.15 305.505 189.307 305.829 188.521C306.154 187.735 306.63 187.02 307.231 186.419C307.832 185.817 308.546 185.339 309.332 185.013C310.117 184.688 310.959 184.52 311.81 184.52H390.2V235.71V235.72Z" fill="#424262"/>
<path d="M434.66 235.72H334.58V192C334.581 190.175 333.896 188.416 332.66 187.073C331.425 185.73 329.729 184.901 327.91 184.75L325.75 184.57H426.41C428.598 184.57 430.696 185.439 432.244 186.986C433.791 188.534 434.66 190.632 434.66 192.82V235.76V235.72Z" fill="#5A5C84"/>
<path d="M425.2 215.99H366.34V229.17H425.2V215.99Z" fill="#303147"/>
<path d="M414.34 190.63C414.34 191.087 414.204 191.533 413.95 191.913C413.697 192.293 413.336 192.589 412.914 192.764C412.492 192.939 412.027 192.985 411.579 192.896C411.131 192.806 410.719 192.586 410.396 192.263C410.073 191.94 409.853 191.529 409.764 191.081C409.675 190.633 409.721 190.168 409.896 189.746C410.07 189.324 410.367 188.963 410.746 188.709C411.126 188.455 411.573 188.32 412.03 188.32C412.642 188.32 413.23 188.563 413.663 188.997C414.096 189.43 414.34 190.017 414.34 190.63Z" fill="#8DC0F8"/>
<path d="M421.24 190.63C421.242 191.09 421.107 191.54 420.853 191.923C420.599 192.306 420.236 192.605 419.812 192.781C419.388 192.958 418.92 193.005 418.469 192.916C418.018 192.827 417.604 192.606 417.279 192.28C416.954 191.955 416.733 191.541 416.644 191.09C416.555 190.639 416.601 190.172 416.778 189.748C416.955 189.323 417.254 188.961 417.637 188.707C418.02 188.453 418.47 188.318 418.93 188.32C419.541 188.323 420.127 188.567 420.56 189C420.993 189.432 421.237 190.018 421.24 190.63Z" fill="#D972C1"/>
<path d="M428.18 190.63C428.18 191.087 428.045 191.533 427.791 191.913C427.537 192.293 427.176 192.589 426.754 192.764C426.332 192.939 425.868 192.985 425.419 192.896C424.971 192.806 424.56 192.586 424.237 192.263C423.914 191.94 423.694 191.529 423.604 191.081C423.515 190.633 423.561 190.168 423.736 189.746C423.911 189.324 424.207 188.963 424.587 188.709C424.967 188.455 425.413 188.32 425.87 188.32C426.483 188.32 427.07 188.563 427.503 188.997C427.937 189.43 428.18 190.017 428.18 190.63Z" fill="#EEBD4F"/>
<path d="M381.82 235.73H436.34C436.316 233.07 435.242 230.526 433.353 228.653C431.463 226.781 428.91 225.73 426.25 225.73H368.47V229.6H372.53C374.509 229.598 376.445 230.178 378.096 231.268C379.748 232.358 381.043 233.91 381.82 235.73Z" fill="#DBDBF2"/>
<path d="M381.26 229.19C383.438 230.261 385.159 232.078 386.11 234.31H432.34C432.34 232.43 430.55 229.19 428.45 229.19H381.26Z" fill="#D972C1"/>
<path d="M360.3 189.58H339.71V193.1H360.3V189.58Z" fill="#424262"/>
<path d="M360.3 196.84H339.71V228.28H360.3V196.84Z" stroke="#424262" stroke-miterlimit="10"/>
<path d="M46.73 247.83H53.89L32.14 409.99H24.98L46.73 247.83Z" fill="#9E765C"/>
<path d="M210.96 247.83H203.8L225.55 409.99H232.71L210.96 247.83Z" fill="#9E765C"/>
<path d="M138.85 182.85C139.71 184.15 144.85 195.9 147.44 205.56C149.043 211.439 151.251 217.136 154.03 222.56C154.31 223.35 162.9 224.91 174.03 229.09C185.16 233.27 192.03 236.14 192.03 236.14L181.44 240.32C181.44 240.32 160.82 236.93 153.66 234.84C146.5 232.75 143.92 229.35 140.77 225.44C137.62 221.53 122.16 194.1 122.16 194.1L138.85 182.85Z" fill="#EAAD96"/>
<path d="M124.74 397.46H132.01V317.64H124.74L124.74 397.46Z" fill="#445467"/>
<path d="M121.79 319.69H134.94V353.45C134.94 355.124 134.275 356.728 133.092 357.912C131.908 359.095 130.303 359.76 128.63 359.76H128.09C126.416 359.76 124.811 359.095 123.628 357.912C122.445 356.728 121.78 355.124 121.78 353.45V319.69H121.79Z" fill="#445467"/>
<path d="M118.71 325.35H138.03C139.337 325.35 140.616 324.965 141.706 324.243C142.796 323.521 143.649 322.494 144.16 321.29L146.75 315.21C147.181 314.196 147.354 313.09 147.254 311.992C147.154 310.895 146.783 309.839 146.174 308.92C145.566 308 144.74 307.246 143.768 306.724C142.797 306.203 141.712 305.93 140.61 305.93H116.13C115.028 305.93 113.942 306.203 112.971 306.724C112 307.246 111.174 308 110.565 308.92C109.957 309.839 109.586 310.895 109.486 311.992C109.385 313.09 109.559 314.196 109.99 315.21L112.58 321.29C113.09 322.494 113.944 323.521 115.034 324.243C116.124 324.965 117.402 325.35 118.71 325.35Z" fill="#2C3642"/>
<path d="M92.0601 404.79C92.0601 405.825 92.367 406.836 92.9422 407.697C93.5173 408.557 94.3347 409.227 95.2909 409.623C96.2472 410.018 97.2993 410.121 98.3141 409.919C99.3289 409.716 100.261 409.217 100.992 408.485C101.723 407.752 102.22 406.819 102.421 405.804C102.621 404.789 102.516 403.737 102.119 402.782C101.722 401.826 101.05 401.01 100.188 400.437C99.327 399.863 98.3149 399.558 97.2801 399.56C95.8947 399.563 94.567 400.115 93.5883 401.095C92.6097 402.076 92.0601 403.405 92.0601 404.79Z" fill="#445467"/>
<path d="M164.68 404.79C164.68 405.825 164.373 406.836 163.798 407.697C163.222 408.557 162.405 409.227 161.449 409.623C160.493 410.018 159.441 410.121 158.426 409.919C157.411 409.716 156.479 409.217 155.748 408.485C155.017 407.752 154.52 406.819 154.319 405.804C154.118 404.789 154.223 403.737 154.621 402.782C155.018 401.826 155.69 401.01 156.551 400.437C157.413 399.863 158.425 399.558 159.46 399.56C160.845 399.563 162.173 400.115 163.151 401.095C164.13 402.076 164.68 403.405 164.68 404.79Z" fill="#445467"/>
<path d="M128.41 395.61C118.127 395.532 107.969 397.864 98.75 402.42V405.32H157.22V402C148.219 397.731 138.372 395.547 128.41 395.61Z" fill="#445467"/>
<path d="M61.8 177.5C74.54 168.43 94.98 170.8 94.98 170.8L114.9 179.61C114.9 179.61 131.9 206 136.37 221.15C136.83 227.917 137.317 234.68 137.83 241.44C139.55 263.44 141.67 293.13 144.37 315.03L144.43 315.5C116.18 315.3 85.28 311.1 85.28 311.1C76.13 311.1 66.86 303 64.94 295C63.39 288.6 59.34 236.28 57.34 203.46C56.34 187.22 56.11 181.55 61.8 177.5Z" fill="#445467"/>
<path d="M82.0998 298.72C77.3098 297.25 73.9698 290.72 72.9498 280.56C72.3198 274.28 67.5298 235.92 65.6198 207.93C64.8198 196.14 62.6198 184.64 64.5498 180.65C71.7898 165.28 118.45 167.94 129.96 177.37C141.47 186.8 141.85 206.37 143.05 222.9C143.97 235.6 150.05 288.09 151.23 301.9C126.6 303.26 105.19 305.82 82.0998 298.72Z" fill="#2C3642"/>
<path d="M67.5098 299C67.5098 309.19 94.3298 317.46 127.41 317.46C160.49 317.46 187.34 309.15 187.34 299C187.34 288.85 160.77 290.26 127.69 290.26C94.6098 290.26 67.5098 288.77 67.5098 299Z" fill="#2C3642"/>
<path d="M75.1499 291.36C75.2099 291.87 89.6799 301.45 92.8599 302.61C102.211 306.029 112.025 308.018 121.97 308.51C132.963 309.066 143.984 308.523 154.87 306.89C163.63 305.56 173.01 304.43 178.71 296.13C179.464 295.005 180.132 293.825 180.71 292.6C184.92 293.91 187.31 295.91 187.31 298.96C187.31 309.15 160.49 317.42 127.42 317.42C94.3499 317.42 67.5199 309.15 67.5199 298.96C67.5099 294.83 67.6699 292.54 75.1499 291.36Z" fill="#445467"/>
<path d="M215.12 391.49C215.12 391.49 217.56 400.63 217.84 402.83C217.94 403.56 217.84 405.06 217.94 405.83C218.09 406.83 218.59 409.56 219.53 410.01H232.28L250.52 410.74L251.01 407.8C250.78 405.8 247.56 404.63 245.69 403.94C241.78 402.48 235.04 398.94 235.04 398.94L231.04 384.84L215.12 391.49Z" fill="#393A45"/>
<path d="M250.99 410.72C250.99 410.72 251.63 408.81 250.99 407.72L218.19 407.25C218.19 407.25 218.4 409.39 219.51 409.93L250.99 410.72Z" fill="white"/>
<path d="M216.25 307.76C214.62 299.76 209.97 291.06 202.17 286.76C187.52 278.69 166.17 275.62 163.66 274.13L142.98 269.49L124.27 270.16C124.27 270.16 124.94 295.09 132.85 302.61C134.74 304.4 140.26 307.85 147.85 308.61C163.96 310.28 187.43 309.23 187.43 309.23C187.43 309.23 193.71 328.46 200.59 350.56C210.07 381 213.59 393.22 213.59 393.22L234.4 388.13C234.4 388.13 222.95 340.53 216.25 307.76Z" fill="#697FD0"/>
<path d="M168.51 308.56L193.34 310.07" stroke="#546BBD" stroke-miterlimit="10"/>
<path d="M180.11 391.49C180.11 391.49 182.55 400.63 182.84 402.83C182.93 403.56 182.84 405.06 182.93 405.83C183.08 406.83 183.59 409.56 184.52 410.01H197.27L215.51 410.74L216 407.8C215.77 405.8 212.55 404.63 210.69 403.94C206.77 402.48 200.03 398.94 200.03 398.94L196.03 384.84L180.11 391.49Z" fill="#393A45"/>
<path d="M215.98 410.72C215.98 410.72 216.63 408.81 215.98 407.72L183.18 407.25C183.18 407.25 183.39 409.39 184.5 409.93L215.98 410.72Z" fill="white"/>
<path d="M176.49 304.47C169.33 282.1 127.58 276.42 123.66 274.13L102.98 269.49L84.28 270.16C84.28 270.16 83.97 293.47 91.88 300.99C93.76 302.79 99.29 306.23 106.83 306.99C122.94 308.66 147.62 309.67 147.62 309.67C147.62 309.67 152.13 327.13 160.07 348.87C170.15 376.49 178.51 395.87 178.51 395.87L198.45 390.76C198.45 390.76 184.81 330.47 176.49 304.47Z" fill="#697FD0"/>
<path d="M188.74 348.43C184.74 332.82 180.12 315.8 176.49 304.43C171.55 288.98 150.11 281.49 136.02 277.58" stroke="#546BBD" stroke-miterlimit="10"/>
<path d="M128.51 308.56L153.35 310.07" stroke="#546BBD" stroke-miterlimit="10"/>
<path d="M103.64 148.83C103.928 152.3 103.443 155.79 102.22 159.05C101.42 161.62 92.1299 167.42 92.1299 167.42C92.1299 167.42 121.04 192.42 131.3 191.64C141.56 190.86 125.3 164.64 125.3 164.64C125.3 164.64 120.85 162.33 119.76 159.64C118.67 156.95 117.76 150.77 117.76 150.77L104.86 136.4L103.64 148.83Z" fill="#EAAD96"/>
<path d="M106.13 158.55C104.993 158.024 103.931 157.352 102.97 156.55C103.646 154.029 103.873 151.409 103.64 148.81L104.81 136.4L117.71 150.77C117.71 150.77 118.63 156.95 119.71 159.64C119.857 159.992 120.041 160.327 120.26 160.64C119.378 160.954 118.467 161.178 117.54 161.31C113.62 160.966 109.774 160.035 106.13 158.55Z" fill="#D38576"/>
<path d="M131.92 168.44C131.92 168.44 138.79 171.53 142.5 180.53C145.37 187.48 154.01 213.83 154.5 214.81C154.99 215.79 156.95 217.5 160.13 218.97C163.31 220.44 187.55 229.97 189.26 232.92C189.26 232.92 188.7 239.09 181.52 240.29C181.52 240.29 152.52 234.64 147.64 231.95C142.76 229.26 129.77 204 125.34 195C120.91 186 131.92 168.44 131.92 168.44Z" fill="#4C8673"/>
<path d="M99.4397 162.2C99.4397 162.2 86.3397 165.91 81.5297 169.67C76.1697 173.9 77.7797 187.93 78.3997 194.67C78.7697 198.67 78.5797 244.06 78.5797 265.67C78.5797 279.04 86.3397 277.48 90.2897 276.67C98.2897 275.1 110.39 276.67 122.69 275.43C133.49 274.37 141.05 273.16 145.62 269.81C149.77 266.76 144.01 252.87 142.67 237.97C140.67 215.24 139.91 191.39 139.1 187.33C137.77 180.63 131.92 168.33 131.92 168.33L124.34 164.08C123.908 164.922 123.289 165.653 122.529 166.216C121.769 166.78 120.89 167.161 119.96 167.33C105.66 170.78 99.4397 162.2 99.4397 162.2Z" fill="#4C8673"/>
<path d="M142.67 238.05C140.67 215.32 139.91 191.47 139.1 187.41C138.025 183.08 136.569 178.854 134.75 174.78" stroke="#3B6759" stroke-width="0.75" stroke-linejoin="round"/>
<path d="M127.34 117.94C129.07 120.41 130.19 125.6 130.02 128.94C129.85 132.28 126.08 137.04 126.08 137.04L120.31 118.12L127.34 117.94Z" fill="#393A45"/>
<path d="M126.11 121.94C129.35 126.41 129.11 131.45 128.8 134.64C128.45 137.295 128.45 139.985 128.8 142.64C129.35 147.96 125.72 154.3 123.51 156.76C119.51 161.23 109.41 158.25 106.03 153.19C104.03 150.13 100.28 142.98 99.4799 140.3C98.6799 137.62 96.0499 128.62 99.3399 124.5C102.63 120.38 109.14 119.71 115.87 120.24C122.6 120.77 124.74 120.05 126.11 121.94Z" fill="#EAAD96"/>
<path d="M101.68 133.45C101.68 133.45 104.14 132.59 104.96 127.5C105.61 123.5 105.8 121.5 105.8 121.5C105.8 121.5 109.21 122.12 111.32 122.58C114.309 123.196 117.378 123.328 120.41 122.97C130.97 121.79 131.84 114.4 131.84 114.4C131.84 114.4 128.84 114.51 121.3 111.9C115.548 110.079 109.379 110.047 103.61 111.81C102.419 112.183 101.368 112.905 100.593 113.882C99.8172 114.859 99.3528 116.046 99.2597 117.29C99.2597 117.29 95.5997 116.55 93.5097 120.66C91.5097 124.66 92.3297 128.22 95.1897 134.54C96.9594 138.378 99.721 141.675 103.19 144.09L101.68 133.45Z" fill="#393A45"/>
<path d="M129.03 146.8C129.03 145.8 128.88 144.36 128.88 144.36C128.42 147.51 127.77 147.42 127.6 147.25C125.79 145.45 122.72 144.97 119.4 145.4C111.89 146.4 111.1 149.19 109.51 149.17C108.59 149.17 107.78 149.57 106.45 148.17C105.53 147.17 105.45 144.99 105.06 143.17C104.06 138.75 102.2 132.06 102.2 132.06L96.2798 134.95C99.4498 141.32 100.68 143.3 101.28 145.64C102.84 151.8 104.75 156.59 111.75 159.09C117.17 161.02 120.9 161.62 124.43 158.92C128.62 155.65 129.13 149.58 129.03 146.8Z" fill="#393A45"/>
<path d="M115.65 148.6C115.73 148.8 115.96 149.34 116.06 149.51C116.339 150.059 116.727 150.546 117.2 150.94C117.714 151.365 118.318 151.667 118.965 151.825C119.613 151.982 120.288 151.991 120.94 151.85C121.85 151.67 122.681 151.212 123.32 150.54C123.687 150.09 123.941 149.559 124.06 148.99C124.136 148.611 124.183 148.226 124.2 147.84C124.2 147.84 122.13 148.16 120.6 148.29C117.56 148.53 115.65 148.6 115.65 148.6Z" fill="#D16A54"/>
<path d="M121.08 148.92C119.268 149.21 117.415 149.101 115.65 148.6C115.65 148.6 117.56 148.53 120.65 148.29C122.18 148.16 124.25 147.84 124.25 147.84C124.25 147.84 123.69 148.63 121.13 148.92" fill="#F4F4F4"/>
<path d="M115.61 130.44C115.557 129.743 115.229 129.096 114.7 128.64C111.676 128.637 108.767 129.793 106.57 131.87C106.931 131.868 107.291 131.844 107.65 131.8C108.42 131.66 112.74 129.88 115.61 130.44Z" fill="#393A45"/>
<path d="M121.13 130.06C121.009 129.43 121.138 128.777 121.49 128.24C121.49 128.24 123.81 127.35 127.87 129.5C127.87 129.5 127.7 130.04 126.93 129.9C126.16 129.76 123.06 128.7 121.13 130.06Z" fill="#393A45"/>
<path d="M101.16 137.16C98.7099 134.81 95.1599 135.69 95.8399 139.34C96.4299 142.34 97.8999 142.85 100.39 145.15C102.08 146.72 103.39 145.75 103.39 144.88C103.34 142.43 102.68 138.62 101.16 137.16Z" fill="#EAAD96"/>
<path d="M102 142.6C102.29 143.22 102.47 143.67 102.74 144.13C102.92 143.9 102.5 143.4 102.19 142.31C101.74 140.75 102.25 142.31 101.61 140.79C101.194 139.628 100.393 138.644 99.3399 138C99.1458 137.829 98.899 137.73 98.6405 137.719C98.3821 137.708 98.1277 137.786 97.9199 137.94C99.6836 139.092 101.095 140.708 102 142.61" fill="#D38576"/>
<path d="M118.54 133.31C118.686 134.303 119.025 135.258 119.54 136.12C120.02 136.996 120.565 137.835 121.17 138.63C121.494 138.997 121.776 139.4 122.01 139.83C122.21 140.26 122.28 140.63 122.01 140.95C121.291 141.595 120.403 142.022 119.45 142.18L119.57 142.76C120.151 142.653 120.721 142.489 121.27 142.27C121.852 142.073 122.372 141.729 122.78 141.27C122.993 141.024 123.101 140.705 123.08 140.38C123.057 140.089 122.965 139.808 122.81 139.56C122.521 139.116 122.186 138.704 121.81 138.33C121.084 137.607 120.415 136.828 119.81 136C119.232 135.186 118.796 134.28 118.52 133.32" fill="#D38576"/>
<path d="M112.4 134.54C112.46 135.4 112.96 136.07 113.5 136.03C114.04 135.99 114.43 135.27 114.36 134.41C114.29 133.55 113.8 132.88 113.26 132.92C112.72 132.96 112.34 133.68 112.4 134.54Z" fill="#302426"/>
<path d="M123.12 133.82C123.18 134.68 123.68 135.34 124.22 135.31C124.76 135.28 125.15 134.54 125.08 133.68C125.01 132.82 124.52 132.16 123.98 132.19C123.44 132.22 123.05 133 123.12 133.82Z" fill="#302426"/>
<path d="M103.06 237.51C104 239.02 105.59 240.29 106.88 240.18C108.17 240.07 109.7 237.9 110.64 234.79C111.58 231.68 112.24 230.16 109.77 229.17C107.3 228.18 98.9801 230.97 103.06 237.51Z" fill="#3B6759"/>
<path d="M142.6 231.3C139.6 228.3 134.25 227.3 131.07 227.16C127.89 227.02 119.43 229.26 114.42 230.16C109.41 231.06 99.6399 228.8 99.6399 228.8L94.8599 237.43C94.8599 237.43 108.01 237.01 110.92 238.6C113.83 240.19 118.35 240.87 121.92 240.9C125.49 240.93 127.69 237.15 128.98 236.95C130.958 236.879 132.919 237.339 134.66 238.28C135.419 238.828 136.296 239.191 137.22 239.34C137.83 239.34 137.78 238.11 136.66 237.58C136.91 237.74 137.58 238.12 137.82 238.28C138.06 238.44 138.59 238.92 138.82 239.06C140.29 240.06 140.93 239.69 140.26 238.32C139.866 237.628 139.355 237.008 138.75 236.49C137.667 235.604 136.513 234.808 135.3 234.11C135.3 234.11 139.39 235.75 140.55 237.45C141.71 239.15 143.4 239.87 144.08 239.45C144.76 239.03 141.94 235.14 140.7 234.04C139.562 233.137 138.344 232.34 137.06 231.66C138.08 231.897 139.082 232.204 140.06 232.58C141.27 233.1 145 236.34 146.29 236.27C147.58 236.2 145.6 234.3 142.6 231.3Z" fill="#EAAD96"/>
<path d="M83.7097 168.42C82.6097 169.16 74.4597 172.36 71.3497 180.55C69.2297 186.16 66.4597 204.68 65.4597 213.55C63.8297 228.15 64.8697 230.89 66.7497 234.03C68.6297 237.17 106.88 240.14 106.88 240.14C106.88 240.14 103.88 239.69 105.75 234.37C107.5 229.44 109.75 229.13 109.75 229.13L84.4397 221.1C84.4397 221.1 89.1497 202.34 91.2897 194.64C95.1697 180.7 83.7097 168.42 83.7097 168.42Z" fill="#4C8673"/>
<path d="M66.75 234.07C68.63 237.22 106.88 240.18 106.88 240.18C106.88 240.18 103.88 239.73 105.75 234.41C107.5 229.48 109.75 229.17 109.75 229.17L84.44 221.1C84.44 221.1 89.15 202.34 91.29 194.64C93.23 187.64 91.29 181.11 88.96 176.3" stroke="#3B6759" stroke-width="0.75" stroke-linejoin="round"/>
<path d="M109.77 229.17L84.4399 221.1C84.4399 221.1 89.1499 202.34 91.2899 194.64C92.5571 189.798 92.288 184.682 90.5199 180" stroke="#3B6759" stroke-width="0.75" stroke-linejoin="round"/>
<path d="M85.4896 221.12C85.4896 221.12 79.4896 220.75 76.1396 225.12" stroke="#3B6759" stroke-width="0.75" stroke-linejoin="round"/>
<path d="M142.42 239H158.18L173.94 183.9H164.45C163.72 183.899 163.008 184.125 162.411 184.546C161.815 184.967 161.364 185.562 161.12 186.25L142.42 239Z" fill="#424262"/>
<path d="M145.64 238.17L206.02 239.04L221.34 185.59C221.397 185.392 221.408 185.184 221.371 184.981C221.333 184.778 221.249 184.587 221.125 184.423C221 184.259 220.839 184.126 220.654 184.035C220.469 183.944 220.266 183.898 220.06 183.9H165.28C164.996 183.898 164.72 183.987 164.491 184.155C164.262 184.322 164.093 184.559 164.01 184.83L145.64 238.17Z" fill="#5A5C84"/>
<path d="M204.3 241.9H145.38V237.79H206.69V239.56C206.689 239.871 206.626 240.179 206.504 240.466C206.383 240.752 206.206 241.012 205.984 241.23C205.762 241.447 205.498 241.619 205.209 241.734C204.92 241.849 204.611 241.905 204.3 241.9Z" fill="#5A5C84"/>
<path d="M145.39 241.9H113.27C112.88 241.9 112.506 241.745 112.23 241.469C111.955 241.194 111.8 240.82 111.8 240.43V239.25C111.8 238.86 111.955 238.486 112.23 238.211C112.506 237.935 112.88 237.78 113.27 237.78H145.39C145.841 237.78 146.273 237.959 146.592 238.278C146.911 238.597 147.09 239.029 147.09 239.48V240.2C147.09 240.651 146.911 241.083 146.592 241.402C146.273 241.721 145.841 241.9 145.39 241.9Z" fill="#424262"/>
<path d="M80.79 247.83H87.95L66.2 409.99H59.04L80.79 247.83Z" fill="#9E765C"/>
<path d="M245.02 247.83H237.86L259.61 409.99H266.77L245.02 247.83Z" fill="#9E765C"/>
<path d="M272.92 241.83H47.7998V253.18H272.92V241.83Z" fill="#B48669"/>
<path d="M66.6101 241.83H27.8301V253.18H66.6101V241.83Z" fill="#9E765C"/>
<path d="M366.44 67L366.58 67.55C367.94 73.55 368.34 83.08 368.36 91.87H368.83C368.83 83.05 368.4 73.44 367.03 67.44C367.03 67.31 366.97 67.17 366.93 67.04C366.89 66.91 368.37 67.9 368.93 66.7C371.38 61.7 371.3 43.24 344.86 24.27C344.86 24.27 348.86 64.01 364.72 67.95C365.34 68.13 366.15 67.52 366.44 67Z" fill="#6E8750"/>
<path d="M370.83 49.63V50.24C371.1 57.38 370.64 74.35 370.07 90.47H370.6C371.17 74.35 371.6 57.38 371.36 50.23C371.36 50.07 371.36 49.92 371.36 49.76C371.36 49.76 374.6 51.15 375.77 47.35C378.14 39.69 376.51 20.97 360.77 0.0100098C360.77 0.0100098 356.43 37.89 365.44 49.37C365.77 49.7513 366.175 50.0615 366.628 50.2821C367.082 50.5027 367.576 50.6289 368.079 50.6532C368.583 50.6775 369.087 50.5994 369.56 50.4235C370.032 50.2476 370.465 49.9777 370.83 49.63Z" fill="#A6C55E"/>
<path d="M377.41 65.79C377.41 65.86 377.32 66.26 377.29 66.33C374.92 73.43 373.62 87.79 373.1 94.75H373.59C374.11 87.75 375.4 73.57 377.74 66.56L377.9 66.11C378.009 66.4701 378.246 66.7778 378.567 66.975C378.887 67.1721 379.269 67.245 379.64 67.18C393.06 64.24 396.02 36.29 396.02 36.29C374.96 49 375.18 62.34 376.1 64.65C376.57 65.81 377.41 65.79 377.41 65.79Z" fill="#7C995A"/>
<path d="M373.7 57.92C373.7 57.92 373.63 58.46 373.64 58.45L373.58 58.93C372.78 65.55 372.78 75.99 373.04 85.72L373.57 85.66C373.34 76 373.34 65.58 374.1 59C374.1 58.74 374.17 58.48 374.2 58.22C375.97 59.63 377.99 59.69 379.28 58.22C390.07 46.09 385.47 13 385.47 13C367.73 32.22 368.34 53.07 370.7 56.6C371.026 57.0792 371.48 57.4571 372.01 57.6905C372.541 57.9239 373.126 58.0035 373.7 57.92Z" fill="#89A24E"/>
<path d="M360.34 74.32H382.74L392.07 91.08C395.87 97.92 395.31 105.37 390.5 111.98H352.59C347.77 105.37 347.21 97.92 351.02 91.08L360.34 74.32Z" fill="#CF5C66"/>
<path d="M423.1 117.98H321.64V131.25H416.34L423.1 117.98Z" fill="#F1F1FF"/>
<path d="M333.41 131.72H328.15V117.4H340.75L333.41 131.72Z" fill="#B48669"/>
<path d="M423.03 112.01H340.75V118.3H423.03V112.01Z" fill="#B48669"/>
<path d="M343.38 112.01H321.21V118.3H343.38V112.01Z" fill="#9E765C"/>
<path d="M329.03 131.72H325.94V117.4H336.36L329.03 131.72Z" fill="#9E765C"/>
<path d="M410.49 131.72H405.22V117.4H417.82L410.49 131.72Z" fill="#B48669"/>
<path d="M406.1 131.72H403.02V117.4H413.44L406.1 131.72Z" fill="#9E765C"/>
</g>
<defs>
<clipPath id="clip0_766_7204">
<rect width="476.32" height="416.41" fill="white" transform="translate(0.339844)"/>
</clipPath>
</defs>
</svg>
