<svg width="20" height="20" viewBox="0 0 20 20" fill="none" xmlns="http://www.w3.org/2000/svg">
<path d="M4.75005 0.99492V3.24492M15.25 0.99292V3.24292M0.998047 16.7429V5.49292C0.997916 5.19736 1.05602 4.90467 1.16903 4.63158C1.28205 4.35848 1.44776 4.11032 1.6567 3.90128C1.86565 3.69225 2.11373 3.52642 2.38678 3.41329C2.65983 3.30015 2.95249 3.24192 3.24805 3.24192H16.748C17.3448 3.24192 17.9171 3.47897 18.339 3.90093C18.761 4.32289 18.998 4.89518 18.998 5.49192V16.7429M0.998047 16.7429C0.998047 17.3397 1.2351 17.912 1.65706 18.3339C2.07901 18.7559 2.65131 18.9929 3.24805 18.9929H16.748C17.3448 18.9929 17.9171 18.7559 18.339 18.3339C18.761 17.912 18.998 17.3397 18.998 16.7429M0.998047 16.7429V9.24292C0.998047 8.64618 1.2351 8.07389 1.65706 7.65193C2.07901 7.22997 2.65131 6.99292 3.24805 6.99292H16.748C17.3448 6.99292 17.9171 7.22997 18.339 7.65193C18.761 8.07389 18.998 8.64618 18.998 9.24292V16.7429M12.248 10.7429H14.498M5.49805 12.9929H9.99805M10 10.7429H10.005V10.7489H10V10.7429ZM9.99905 15.2429H10.005V15.2489H9.99905V15.2429ZM7.74905 15.2439H7.75405V15.2499H7.75005L7.74905 15.2439ZM5.49905 15.2439H5.50405V15.2489H5.49805L5.49905 15.2439ZM12.249 12.9969H12.254V13.0019H12.249V12.9969ZM12.249 15.2439H12.255V15.2499H12.249V15.2439ZM14.499 12.9959H14.505V12.9999H14.5L14.499 12.9959Z" stroke="white" stroke-linecap="round" stroke-linejoin="round"/>
</svg>
